<?xml version="1.0" standalone="no"?>
<!DOCTYPE svg PUBLIC "-//W3C//DTD SVG 20010904//EN"
 "http://www.w3.org/TR/2001/REC-SVG-20010904/DTD/svg10.dtd">
<svg version="1.0" xmlns="http://www.w3.org/2000/svg"
 width="500.000000pt" height="500.000000pt" viewBox="0 0 500.000000 500.000000"
 preserveAspectRatio="xMidYMid meet">

<g transform="translate(0.000000,500.000000) scale(0.100000,-0.100000)"
fill="#000000" stroke="none">
<path d="M0 2500 l0 -2500 2500 0 2500 0 0 2500 0 2500 -2500 0 -2500 0 0
-2500z m2300 1480 c0 -5 -4 -10 -10 -10 -5 0 -10 5 -10 10 0 6 5 10 10 10 6 0
10 -4 10 -10z m75 -30 c0 -8 -10 -16 -22 -18 -22 -3 -32 16 -16 32 12 11 38 2
38 -14z m-95 -20 c0 -5 -4 -10 -10 -10 -5 0 -10 5 -10 10 0 6 5 10 10 10 6 0
10 -4 10 -10z m728 -12 c19 -19 14 -46 -9 -59 -18 -9 -25 -7 -41 9 -16 16 -18
23 -9 41 13 23 40 28 59 9z m-868 -18 c0 -5 -4 -10 -10 -10 -5 0 -10 5 -10 10
0 6 5 10 10 10 6 0 10 -4 10 -10z m247 -21 c-49 -4 -96 -10 -104 -13 -9 -4
-25 -3 -37 1 -30 11 37 20 144 20 l85 0 -88 -8z m376 -10 c56 -11 103 -24 105
-29 2 -5 11 -6 20 -3 12 4 14 3 7 -5 -7 -8 -30 -6 -82 8 -68 18 -181 36 -268
43 -22 2 -5 4 38 5 47 1 120 -6 180 -19z m-538 -9 l20 -9 -20 0 c-11 0 -29 4
-40 9 l-20 9 20 0 c11 0 29 -4 40 -9z m-68 -6 c-3 -3 -12 -4 -19 -1 -8 3 -5 6
6 6 11 1 17 -2 13 -5z m-40 -10 c-3 -3 -12 -4 -19 -1 -8 3 -5 6 6 6 11 1 17
-2 13 -5z m-122 -38 c-49 -18 -123 -49 -162 -70 -40 -20 -73 -34 -73 -31 0 16
274 134 310 134 8 0 -25 -15 -75 -33z m-180 4 c0 -8 -10 -16 -22 -18 -22 -3
-32 16 -16 32 12 11 38 2 38 -14z m1110 10 c-3 -5 -11 -10 -16 -10 -6 0 -7 5
-4 10 3 6 11 10 16 10 6 0 7 -4 4 -10z m30 -10 c-3 -5 -11 -10 -16 -10 -6 0
-7 5 -4 10 3 6 11 10 16 10 6 0 7 -4 4 -10z m39 -6 c9 -3 13 -11 10 -16 -4 -6
1 -8 12 -4 23 7 200 -86 196 -104 -1 -6 6 -10 15 -8 11 2 17 -2 15 -11 -2 -8
3 -11 12 -8 17 7 39 -16 28 -28 -4 -5 1 -5 10 -2 20 7 45 -18 28 -28 -6 -3 -7
-12 -4 -18 4 -7 3 -8 -2 -4 -5 5 -9 14 -9 20 0 5 -6 12 -14 15 -9 3 -11 0 -6
-8 6 -9 3 -9 -13 -1 -27 14 -35 14 -26 -1 4 -7 3 -8 -5 -4 -6 4 -8 12 -5 18 5
8 1 9 -10 5 -10 -4 -15 -3 -11 3 3 6 2 10 -4 10 -31 0 -10 -24 67 -76 210
-142 400 -381 499 -629 17 -43 22 -51 18 -26 -14 88 -126 306 -205 401 -22 26
-37 49 -35 52 3 3 -5 13 -17 24 l-23 19 19 -22 c36 -43 10 -23 -44 34 -35 36
-39 43 -12 18 23 -21 42 -35 42 -29 0 13 -85 94 -139 133 -43 30 -58 55 -41
66 12 7 308 -292 359 -364 38 -53 16 -34 -34 30 -26 33 -49 58 -52 56 -2 -3
24 -49 57 -103 77 -123 109 -185 102 -203 -3 -9 0 -11 8 -6 9 5 11 4 6 -3 -4
-6 2 -41 13 -78 12 -37 18 -78 15 -92 -5 -22 -3 -24 6 -12 9 12 10 9 5 -13 -3
-17 -2 -26 4 -23 17 11 36 -167 35 -334 -1 -329 -88 -590 -282 -845 l-31 -40
21 -22 c12 -13 25 -23 30 -23 4 0 24 17 44 38 l36 37 -33 -42 c-27 -35 -30
-45 -19 -58 7 -8 18 -15 26 -15 7 0 19 -9 27 -21 21 -30 123 -68 182 -69 40 0
46 -3 32 -11 -10 -6 -57 -9 -106 -7 -60 2 -92 -1 -100 -9 -14 -16 -41 -6 -41
16 0 9 -22 28 -48 43 -26 16 -55 33 -64 40 -15 11 -24 7 -60 -27 -24 -22 -54
-49 -68 -60 -14 -11 4 7 39 41 42 39 62 64 57 73 -5 8 -29 -7 -79 -52 -186
-167 -399 -283 -601 -328 -45 -10 -54 -15 -40 -21 11 -4 -1 -6 -31 -3 -37 3
-44 2 -25 -4 17 -7 2 -8 -50 -6 -58 3 -67 2 -40 -5 25 -6 15 -7 -38 -3 -40 3
-108 0 -150 -7 -97 -16 -212 2 -386 61 -258 86 -432 186 -595 344 -212 204
-340 441 -397 731 -28 143 -22 576 7 547 6 -6 3 -45 -7 -104 -12 -72 -15 -126
-10 -229 12 -268 92 -504 249 -734 62 -90 204 -242 286 -306 24 -18 -10 20
-76 86 -173 172 -274 333 -346 546 -14 42 -29 94 -32 115 -3 21 6 0 20 -46
110 -359 332 -639 652 -820 80 -45 223 -105 231 -96 3 3 -1 5 -8 5 -7 0 -11 2
-8 5 9 9 38 -7 32 -17 -4 -6 2 -7 16 -3 16 5 20 4 15 -5 -5 -9 -1 -10 15 -5
16 5 20 4 15 -5 -5 -8 -2 -10 11 -6 11 3 53 -4 94 -15 46 -12 124 -22 205 -26
343 -15 683 110 958 352 77 68 89 87 64 102 -7 4 -113 119 -236 256 -122 136
-226 247 -231 247 -5 0 -13 -12 -19 -27 -10 -26 -11 -25 -6 11 3 29 0 43 -13
52 -16 13 -16 13 1 14 14 0 17 9 17 51 0 68 -17 121 -51 161 l-28 33 -1 -320
c0 -298 1 -322 19 -351 13 -22 32 -35 58 -42 30 -8 7 -10 -117 -10 -119 0
-147 2 -118 10 75 20 73 5 76 432 2 209 0 395 -3 413 -8 44 -34 73 -75 83 -42
9 40 13 262 11 147 -2 197 -12 254 -56 17 -13 35 -21 40 -17 5 4 6 3 2 -2 -4
-5 2 -25 15 -45 32 -52 32 -197 0 -257 -30 -57 -95 -112 -148 -126 -25 -7 -44
-15 -43 -19 8 -21 363 -399 374 -399 8 0 14 -6 14 -13 0 -8 8 -21 18 -31 18
-16 22 -12 81 71 67 94 155 266 191 373 86 258 87 545 3 805 -165 510 -639
887 -1186 944 l-92 10 110 -4 c155 -5 423 -63 408 -88 -4 -6 0 -8 11 -4 11 4
15 3 10 -4 -4 -8 1 -9 17 -4 21 7 22 6 10 -9 -16 -19 -1 -22 19 -3 12 10 12 9
1 -5 -15 -19 -2 -25 16 -7 7 7 31 0 83 -26 40 -20 74 -34 77 -31 9 8 -134 96
-228 140 -50 23 -87 45 -83 49 9 8 9 8 28 1z m-1285 -22 c13 -24 -4 -52 -33
-52 -26 0 -40 23 -31 51 8 24 51 25 64 1z m746 11 c-383 -30 -704 -175 -953
-432 -101 -104 -169 -203 -213 -310 -18 -44 -34 -79 -36 -77 -3 2 3 20 11 40
24 59 8 41 -20 -21 -82 -183 -115 -323 -125 -533 l-7 -165 3 175 c3 147 7 191
29 276 29 119 72 231 126 332 48 89 200 303 211 296 4 -2 11 1 15 7 4 8 3 9
-4 5 -8 -5 -10 -1 -6 11 3 10 -32 -20 -77 -67 -47 -48 -65 -63 -42 -35 75 92
299 292 321 287 8 -2 11 1 8 6 -3 5 2 16 12 23 15 12 16 12 5 -2 -7 -9 -10
-18 -7 -22 3 -3 -9 -13 -28 -23 -36 -19 -178 -152 -178 -167 0 -5 29 18 64 50
82 77 208 161 324 216 51 24 89 47 84 52 -4 4 4 4 17 0 16 -5 21 -4 17 3 -16
26 267 80 414 79 41 0 57 -2 35 -4z m-870 -23 c0 -22 -39 -19 -43 3 -3 15 1
18 20 15 12 -2 23 -10 23 -18z m364 -14 c-2 -2 -15 -9 -29 -15 -24 -11 -24
-11 -6 3 16 13 49 24 35 12z m505 -27 c-3 -5 -10 -7 -15 -3 -5 3 -7 10 -3 15
3 5 10 7 15 3 5 -3 7 -10 3 -15z m-584 -14 c0 -2 -10 -9 -22 -15 -22 -11 -22
-10 -4 4 21 17 26 19 26 11z m-120 -20 c0 -2 -10 -9 -22 -15 -22 -11 -22 -10
-4 4 21 17 26 19 26 11z m170 -5 c-8 -5 -19 -10 -25 -10 -5 0 -3 5 5 10 8 5
20 10 25 10 6 0 3 -5 -5 -10z m1045 -31 c4 -12 2 -26 -3 -31 -15 -15 -35 1
-29 24 5 18 2 20 -24 14 -110 -22 -206 -106 -276 -242 -68 -132 -453 -981
-460 -1014 -3 -17 -9 -28 -13 -23 -5 4 -47 98 -95 208 -48 110 -92 209 -98
220 -6 11 -12 22 -12 25 -4 22 -18 50 -25 50 -5 0 -11 -8 -14 -17 -2 -10 -2
-1 1 19 3 22 -1 48 -10 65 -20 40 -39 82 -92 208 -51 120 -84 163 -136 175
-22 5 22 8 121 8 112 0 146 -2 123 -9 -54 -16 -55 -53 -3 -174 35 -81 60 -145
151 -375 50 -129 95 -238 98 -242 3 -3 75 161 160 365 85 205 176 417 202 472
93 193 220 292 376 294 44 1 53 -2 58 -20z m-1125 -3 c0 -2 -7 -7 -16 -10 -8
-3 -12 -2 -9 4 6 10 25 14 25 6z m-186 -24 c-12 -9 -48 -37 -79 -62 -88 -69
-207 -200 -275 -302 -71 -106 -83 -121 -50 -61 66 120 242 316 366 407 50 36
76 49 38 18z m1370 -13 c-3 -5 -10 -7 -15 -3 -5 3 -7 10 -3 15 3 5 10 7 15 3
5 -3 7 -10 3 -15z m-1264 -4 c0 -2 -10 -9 -22 -15 -22 -11 -22 -10 -4 4 21 17
26 19 26 11z m1230 -25 c0 -5 -7 -10 -16 -10 -8 0 -12 5 -9 10 3 6 10 10 16
10 5 0 9 -4 9 -10z m421 -107 c13 -16 12 -17 -3 -4 -17 13 -22 21 -14 21 2 0
10 -8 17 -17z m260 -53 c21 -12 25 -40 7 -58 -18 -18 -46 -14 -58 9 -9 16 -8
25 6 40 20 22 20 22 45 9z m-2113 -108 c3 -17 -2 -22 -17 -22 -14 0 -21 6 -21
18 0 38 33 41 38 4z m2198 -13 c3 -6 0 -17 -7 -25 -18 -17 -44 -2 -36 20 7 18
33 21 43 5z m-2166 -19 c0 -5 -4 -10 -10 -10 -5 0 -10 5 -10 10 0 6 5 10 10
10 6 0 10 -4 10 -10z m-52 -38 c3 -17 -2 -22 -17 -22 -14 0 -21 6 -21 18 0 38
33 41 38 4z m-314 -13 c-3 -5 -10 -7 -15 -3 -5 3 -7 10 -3 15 3 5 10 7 15 3 5
-3 7 -10 3 -15z m106 -3 c0 -2 -8 -10 -17 -17 -16 -13 -17 -12 -4 4 13 16 21
21 21 13z m2460 -10 c0 -11 -19 -15 -25 -6 -3 5 1 10 9 10 9 0 16 -2 16 -4z
m-1718 -72 c-25 -34 -43 -38 -24 -5 8 15 21 28 28 28 9 0 7 -7 -4 -23z m-869
-49 c-9 -19 -18 -33 -21 -31 -4 5 26 66 33 66 3 0 -3 -16 -12 -35z m47 15 c-6
-11 -13 -20 -16 -20 -2 0 0 9 6 20 6 11 13 20 16 20 2 0 0 -9 -6 -20z m2530
-10 c6 -11 8 -20 6 -20 -3 0 -10 9 -16 20 -6 11 -8 20 -6 20 3 0 10 -9 16 -20z
m-2577 -75 c-15 -30 -29 -53 -31 -51 -4 5 46 106 53 106 3 0 -7 -25 -22 -55z
m2617 4 c12 -23 20 -43 18 -45 -3 -2 -14 17 -26 41 -27 56 -20 60 8 4z m-2659
-26 c-12 -20 -14 -14 -5 12 4 9 9 14 11 11 3 -2 0 -13 -6 -23z m1372 -43 c9
-25 9 -25 28 15 10 22 16 29 13 15 -20 -77 -36 -88 -53 -39 -12 33 -15 79 -4
49 3 -8 10 -26 16 -40z m167 5 c0 -25 -4 -45 -8 -45 -5 0 -9 20 -11 45 -1 26
2 45 9 45 5 0 10 -20 10 -45z m132 -5 c9 -24 9 -24 29 15 10 22 16 29 13 15
-12 -45 -23 -70 -33 -70 -10 0 -31 55 -30 79 1 17 0 19 21 -39z m206 23 c5
-16 13 -37 17 -48 7 -16 6 -18 -6 -7 -17 15 -59 16 -59 0 0 -6 -3 -8 -7 -5 -7
8 27 87 38 87 4 0 12 -12 17 -27z m-1899 -42 c-6 -18 -13 -30 -15 -28 -2 2 1
18 7 36 6 18 13 30 15 28 2 -2 -1 -18 -7 -36z m2681 -16 c0 -5 -5 -3 -10 5 -5
8 -10 20 -10 25 0 6 5 3 10 -5 5 -8 10 -19 10 -25z m-2669 -12 c-12 -20 -14
-14 -5 12 4 9 9 14 11 11 3 -2 0 -13 -6 -23z m2689 -38 c0 -5 -5 -3 -10 5 -5
8 -10 20 -10 25 0 6 5 3 10 -5 5 -8 10 -19 10 -25z m-2723 3 c-3 -8 -6 -5 -6
6 -1 11 2 17 5 13 3 -3 4 -12 1 -19z m110 -10 c-3 -8 -6 -5 -6 6 -1 11 2 17 5
13 3 -3 4 -12 1 -19z m93 7 c23 -28 -9 -72 -45 -59 -36 14 -24 74 15 74 10 0
23 -7 30 -15z m2428 -22 c5 -17 -26 -29 -40 -15 -6 6 -7 15 -3 22 9 14 37 9
43 -7z m-2531 -25 c-3 -8 -6 -5 -6 6 -1 11 2 17 5 13 3 -3 4 -12 1 -19z m-108
-43 c0 -5 -4 -3 -9 5 -5 8 -9 22 -9 30 0 16 17 -16 18 -35z m2748 23 c-3 -8
-6 -5 -6 6 -1 11 2 17 5 13 3 -3 4 -12 1 -19z m-1143 3 c4 -5 -3 -7 -14 -4
-23 6 -26 13 -6 13 8 0 17 -4 20 -9z m1246 -1 c0 -5 -4 -10 -10 -10 -5 0 -10
5 -10 10 0 6 5 10 10 10 6 0 10 -4 10 -10z m-2753 -22 c-3 -8 -6 -5 -6 6 -1
11 2 17 5 13 3 -3 4 -12 1 -19z m1498 -8 c14 -16 20 -17 27 -8 5 9 8 9 8 1 0
-6 12 -26 27 -45 22 -27 23 -29 4 -13 l-22 19 5 -29 c6 -28 5 -28 -7 4 -7 19
-28 47 -47 63 -19 15 -29 28 -24 28 6 0 19 -9 29 -20z m201 -12 l29 -32 -32
25 c-18 13 -32 27 -32 32 -1 12 4 8 35 -25z m874 -4 c0 -20 -30 -30 -40 -13
-11 17 7 40 26 32 8 -3 14 -12 14 -19z m137 4 c-3 -8 -6 -5 -6 6 -1 11 2 17 5
13 3 -3 4 -12 1 -19z m-2817 -23 c0 -5 -5 -3 -10 5 -5 8 -10 20 -10 25 0 6 5
3 10 -5 5 -8 10 -19 10 -25z m240 25 c0 -5 -4 -10 -10 -10 -5 0 -10 5 -10 10
0 6 5 10 10 10 6 0 10 -4 10 -10z m-143 -32 c-3 -7 -5 -2 -5 12 0 14 2 19 5
13 2 -7 2 -19 0 -25z m703 28 c0 -2 -7 -21 -16 -42 -13 -30 -15 -61 -12 -139
3 -61 2 -88 -3 -70 -5 17 -22 44 -39 60 -29 28 -41 53 -19 39 8 -4 9 1 5 17
-6 20 -5 21 4 6 6 -9 8 -22 5 -27 -3 -6 -2 -10 3 -10 5 0 14 -10 20 -22 10
-19 11 -12 10 42 -1 65 18 150 34 150 4 0 8 -2 8 -4z m-605 -26 c0 -8 -10 -16
-22 -18 -22 -3 -32 16 -16 32 12 11 38 2 38 -14z m2582 -2 c-3 -8 -6 -5 -6 6
-1 11 2 17 5 13 3 -3 4 -12 1 -19z m50 -10 c-3 -8 -6 -5 -6 6 -1 11 2 17 5 13
3 -3 4 -12 1 -19z m-2740 -45 c-3 -10 -5 -4 -5 12 0 17 2 24 5 18 2 -7 2 -21
0 -30z m2700 15 c-3 -8 -6 -5 -6 6 -1 11 2 17 5 13 3 -3 4 -12 1 -19z m50 -10
c-3 -8 -6 -5 -6 6 -1 11 2 17 5 13 3 -3 4 -12 1 -19z m-2902 -28 c0 -8 -10
-16 -22 -18 -18 -3 -23 2 -23 18 0 16 5 21 23 18 12 -2 22 -10 22 -18z m1810
-10 c10 -11 16 -20 13 -20 -3 0 -13 9 -23 20 -10 11 -16 20 -13 20 3 0 13 -9
23 -20z m1052 -12 c-3 -8 -6 -5 -6 6 -1 11 2 17 5 13 3 -3 4 -12 1 -19z m50 0
c-3 -8 -6 -5 -6 6 -1 11 2 17 5 13 3 -3 4 -12 1 -19z m-2770 -50 c-2 -13 -4
-3 -4 22 0 25 2 35 4 23 2 -13 2 -33 0 -45z m2730 -30 c-2 -13 -4 -5 -4 17 -1
22 1 32 4 23 2 -10 2 -28 0 -40z m50 5 c-3 -10 -5 -2 -5 17 0 19 2 27 5 18 2
-10 2 -26 0 -35z m10 -210 c-2 -32 -3 -6 -3 57 0 63 1 89 3 58 2 -32 2 -84 0
-115z m-50 20 c-2 -27 -3 -5 -3 47 0 52 1 74 3 48 2 -27 2 -69 0 -95z m129 68
c-10 -16 -36 -13 -43 5 -8 22 18 37 36 20 7 -8 10 -19 7 -25z m-231 -11 c-3
-5 -10 -10 -16 -10 -5 0 -9 5 -9 10 0 6 7 10 16 10 8 0 12 -4 9 -10z m-2638
-112 c-2 -13 -4 -3 -4 22 0 25 2 35 4 23 2 -13 2 -33 0 -45z m-187 42 c0 -5
-4 -10 -10 -10 -5 0 -10 5 -10 10 0 6 5 10 10 10 6 0 10 -4 10 -10z m260 -15
c0 -21 -19 -28 -36 -15 -10 9 -11 16 -3 26 12 15 39 8 39 -11z m2810 -5 c0
-13 -7 -20 -20 -20 -19 0 -27 20 -13 33 13 14 33 6 33 -13z m-3066 -53 c33
-24 1 -79 -38 -64 -19 8 -22 63 -3 70 19 8 22 8 41 -6z m193 -44 c-3 -10 -5
-4 -5 12 0 17 2 24 5 18 2 -7 2 -21 0 -30z m2720 0 c-3 -10 -5 -4 -5 12 0 17
2 24 5 18 2 -7 2 -21 0 -30z m-2780 -20 c-3 -10 -5 -2 -5 17 0 19 2 27 5 18 2
-10 2 -26 0 -35z m2830 0 c-3 -10 -5 -4 -5 12 0 17 2 24 5 18 2 -7 2 -21 0
-30z m53 27 c0 -5 -4 -10 -10 -10 -5 0 -10 5 -10 10 0 6 5 10 10 10 6 0 10 -4
10 -10z m-2813 -62 c-3 -8 -6 -5 -6 6 -1 11 2 17 5 13 3 -3 4 -12 1 -19z m670
6 c3 -8 1 -20 -6 -27 -8 -8 -6 -15 6 -29 9 -11 11 -18 5 -18 -7 0 -17 9 -24
20 -17 26 -26 25 -31 -2 -2 -13 -5 -2 -6 25 -1 44 1 47 24 47 14 0 28 -7 32
-16z m193 1 c19 -23 4 -64 -27 -71 -41 -11 -71 44 -41 74 17 17 53 15 68 -3z
m174 6 c3 -4 -6 -6 -19 -3 -33 6 -33 -16 0 -28 31 -12 33 -36 4 -45 -14 -5
-27 -1 -37 9 -11 10 -12 16 -4 16 7 0 12 -4 12 -10 0 -13 27 -13 35 0 3 6 -5
14 -19 20 -25 9 -34 29 -19 43 9 10 41 9 47 -2z m149 2 c-13 -2 -23 -11 -23
-19 0 -8 10 -15 23 -15 l22 -2 -22 -4 c-13 -2 -23 -11 -23 -18 0 -7 10 -16 23
-18 19 -4 18 -4 -5 -6 -27 -1 -28 1 -28 44 0 43 1 45 28 44 23 -2 24 -2 5 -6z
m1514 -25 c-3 -7 -5 -2 -5 12 0 14 2 19 5 13 2 -7 2 -19 0 -25z m-2760 -15
c-3 -10 -5 -4 -5 12 0 17 2 24 5 18 2 -7 2 -21 0 -30z m2810 5 c-3 -8 -6 -5
-6 6 -1 11 2 17 5 13 3 -3 4 -12 1 -19z m-2740 -30 c-3 -8 -6 -5 -6 6 -1 11 2
17 5 13 3 -3 4 -12 1 -19z m2680 -10 c-3 -8 -6 -5 -6 6 -1 11 2 17 5 13 3 -3
4 -12 1 -19z m50 -10 c-3 -8 -6 -5 -6 6 -1 11 2 17 5 13 3 -3 4 -12 1 -19z
m-2720 -20 c-3 -8 -6 -5 -6 6 -1 11 2 17 5 13 3 -3 4 -12 1 -19z m2660 -10
c-3 -8 -6 -5 -6 6 -1 11 2 17 5 13 3 -3 4 -12 1 -19z m50 -10 c-3 -8 -6 -5 -6
6 -1 11 2 17 5 13 3 -3 4 -12 1 -19z m-2688 -48 c0 -9 -4 -8 -9 5 -5 11 -9 27
-9 35 0 9 4 8 9 -5 5 -11 9 -27 9 -35z m2678 8 c-3 -8 -6 -5 -6 6 -1 11 2 17
5 13 3 -3 4 -12 1 -19z m-60 -20 c-3 -8 -6 -5 -6 6 -1 11 2 17 5 13 3 -3 4
-12 1 -19z m-2587 -73 c0 -5 -5 -3 -10 5 -5 8 -10 20 -10 25 0 6 5 3 10 -5 5
-8 10 -19 10 -25z m1680 -45 c-16 -59 -20 -46 -6 20 6 30 12 47 14 38 2 -9 -2
-35 -8 -58z m881 43 c-12 -20 -14 -14 -5 12 4 9 9 14 11 11 3 -2 0 -13 -6 -23z
m-2541 -48 c0 -5 -5 -3 -10 5 -5 8 -10 20 -10 25 0 6 5 3 10 -5 5 -8 10 -19
10 -25z m2521 -2 c-12 -20 -14 -14 -5 12 4 9 9 14 11 11 3 -2 0 -13 -6 -23z
m50 -10 c-12 -20 -14 -14 -5 12 4 9 9 14 11 11 3 -2 0 -13 -6 -23z m-2537 -59
c3 -8 2 -12 -4 -9 -6 3 -10 10 -10 16 0 14 7 11 14 -7z m2302 -25 c3 -6 0 -17
-7 -25 -18 -17 -44 -2 -36 20 7 18 33 21 43 5z m-2282 -15 c3 -8 2 -12 -4 -9
-6 3 -10 10 -10 16 0 14 7 11 14 -7z m2396 -34 c-6 -11 -13 -20 -16 -20 -2 0
0 9 6 20 6 11 13 20 16 20 2 0 0 -9 -6 -20z m50 -10 c-6 -11 -13 -20 -16 -20
-2 0 0 9 6 20 6 11 13 20 16 20 2 0 0 -9 -6 -20z m-2332 -13 c2 -11 -3 -17
-17 -17 -23 0 -35 15 -26 31 10 15 39 6 43 -14z m2103 -8 c9 -18 7 -25 -9 -41
-16 -16 -23 -18 -41 -9 -23 13 -28 40 -9 59 19 19 46 14 59 -9z m142 -30 c-10
-17 -24 -36 -32 -42 -8 -7 -2 7 14 31 32 49 45 57 18 11z m-2269 -49 c27 -40
29 -46 9 -23 -15 17 -37 46 -47 65 -26 45 -8 25 38 -42z m2321 43 c-9 -16 -30
-44 -46 -63 -20 -22 -15 -12 12 28 44 64 62 83 34 35z m-2235 -29 c0 -19 -28
-30 -42 -16 -8 8 -8 15 1 26 14 17 41 10 41 -10z m-260 -14 c0 -5 -7 -10 -16
-10 -8 0 -12 5 -9 10 3 6 10 10 16 10 5 0 9 -4 9 -10z m2380 -40 c-11 -16 -26
-33 -32 -36 -7 -4 1 9 16 29 34 44 46 50 16 7z m-2344 -31 c3 -6 0 -17 -7 -25
-18 -17 -44 -2 -36 20 7 18 33 21 43 5z m199 -9 c10 -11 16 -20 13 -20 -3 0
-13 9 -23 20 -10 11 -16 20 -13 20 3 0 13 -9 23 -20z m2251 -31 c3 -6 0 -17
-7 -25 -18 -17 -44 -2 -36 20 7 18 33 21 43 5z m-2051 -173 c11 -11 -2 -1 -30
21 -27 23 -75 68 -105 100 -41 43 -33 37 30 -22 47 -43 94 -88 105 -99z m-365
124 c0 -5 -4 -10 -10 -10 -5 0 -10 5 -10 10 0 6 5 10 10 10 6 0 10 -4 10 -10z
m2220 -43 c0 -2 -12 -14 -27 -28 l-28 -24 24 28 c23 25 31 32 31 24z m67 -53
c8 -20 -17 -36 -34 -22 -10 8 -10 14 -2 24 15 18 28 18 36 -2z m-140 -12 c-10
-10 -38 -34 -65 -52 -57 -41 -49 -30 21 27 57 46 69 52 44 25z m83 -22 c0 -5
-7 -10 -15 -10 -8 0 -15 5 -15 10 0 6 7 10 15 10 8 0 15 -4 15 -10z m-1819
-27 c13 -16 12 -17 -3 -4 -10 7 -18 15 -18 17 0 8 8 3 21 -13z m1629 13 c0 -3
-15 -14 -32 -26 l-33 -22 30 26 c31 27 35 29 35 22z m-1560 -63 c0 -7 -39 17
-46 28 -3 6 5 3 20 -6 14 -10 26 -19 26 -22z m1460 -8 c0 -2 -13 -11 -30 -20
-38 -19 -40 -11 -2 9 31 17 32 18 32 11z m-1135 -40 c0 -27 -3 -30 -30 -30
-21 0 -31 5 -33 18 -5 25 17 49 42 45 16 -2 21 -10 21 -33z m-225 -11 c0 -2
-13 2 -30 11 -16 9 -30 18 -30 21 0 2 14 -2 30 -11 17 -9 30 -18 30 -21z
m1390 31 c0 -2 -13 -11 -30 -20 -38 -19 -40 -11 -2 9 31 17 32 18 32 11z
m-100 -20 c0 -6 -117 -65 -127 -65 -4 1 21 16 57 35 72 38 70 37 70 30z m-974
-64 c-10 -16 -36 -13 -43 5 -8 22 18 37 36 20 7 -8 10 -19 7 -25z m-226 14
c14 -8 21 -14 15 -14 -5 0 -21 6 -35 14 -14 8 -20 14 -15 14 6 0 21 -6 35 -14z
m1310 5 c0 -5 -7 -10 -16 -10 -8 0 -12 5 -9 10 3 6 10 10 16 10 5 0 9 -4 9
-10z m-170 -20 c-8 -5 -19 -10 -25 -10 -5 0 -3 5 5 10 8 5 20 10 25 10 6 0 3
-5 -5 -10z m-90 -10 c-8 -5 -19 -10 -25 -10 -5 0 -3 5 5 10 8 5 20 10 25 10 6
0 3 -5 -5 -10z m218 -27 c5 -17 -26 -29 -40 -15 -6 6 -7 15 -3 22 9 14 37 9
43 -7z m46 -4 c-3 -5 -10 -7 -15 -3 -5 3 -7 10 -3 15 3 5 10 7 15 3 5 -3 7
-10 3 -15z m-274 1 c-8 -5 -19 -10 -25 -10 -5 0 -3 5 5 10 8 5 20 10 25 10 6
0 3 -5 -5 -10z m-123 -16 c-3 -3 -12 -4 -19 -1 -8 3 -5 6 6 6 11 1 17 -2 13
-5z m268 -14 c0 -8 -10 -16 -22 -18 -18 -3 -23 2 -23 18 0 16 5 21 23 18 12
-2 22 -10 22 -18z m-320 0 c-11 -5 -29 -8 -40 -8 -16 0 -15 2 5 8 34 11 60 11
35 0z m22 -16 c-3 -3 -12 -4 -19 -1 -8 3 -5 6 6 6 11 1 17 -2 13 -5z m-44 -11
c-7 -2 -19 -2 -25 0 -7 3 -2 5 12 5 14 0 19 -2 13 -5z m-50 -10 c-7 -2 -19 -2
-25 0 -7 3 -2 5 12 5 14 0 19 -2 13 -5z m-685 -26 c4 -20 -25 -34 -40 -19 -15
15 -1 44 19 40 10 -2 19 -11 21 -21z m615 16 c-7 -2 -19 -2 -25 0 -7 3 -2 5
12 5 14 0 19 -2 13 -5z m-135 -10 c-26 -2 -71 -2 -100 0 -29 2 -8 3 47 3 55 0
79 -1 53 -3z m-1727 -319 c11 -14 9 -15 -24 -9 -46 9 -51 -11 -7 -28 34 -13
47 -41 30 -62 -16 -20 -64 -19 -80 0 -16 19 -5 34 12 17 16 -16 48 -15 48 2 0
8 -13 19 -30 25 -22 7 -30 16 -30 34 0 13 3 27 7 30 12 13 61 7 74 -9z m179
-49 c0 -51 -3 -65 -15 -65 -12 0 -15 14 -15 65 0 51 3 65 15 65 12 0 15 -14
15 -65z m180 10 c0 -52 1 -55 25 -55 14 0 25 -4 25 -10 0 -5 -18 -10 -40 -10
l-40 0 0 65 c0 51 3 65 15 65 12 0 15 -13 15 -55z m221 3 l15 -53 19 53 c11
28 25 52 32 52 9 0 6 -18 -11 -62 -35 -94 -60 -84 -90 35 -12 52 19 29 35 -25z
m299 42 c0 -5 -13 -10 -30 -10 -20 0 -30 -5 -30 -15 0 -9 9 -15 24 -15 14 0
28 -4 31 -10 4 -6 -7 -10 -24 -10 -24 0 -31 -4 -31 -20 0 -16 7 -20 30 -20 17
0 30 -4 30 -10 0 -5 -20 -10 -45 -10 l-45 0 0 65 0 65 45 0 c25 0 45 -4 45
-10z m234 -12 c8 -13 6 -22 -9 -38 -20 -22 -20 -22 3 -40 26 -22 28 -30 5 -30
-10 0 -27 12 -40 28 l-22 27 -1 -27 c0 -16 -4 -28 -10 -28 -6 0 -10 29 -10 66
l0 65 36 -3 c21 -2 42 -10 48 -20z m386 -27 c0 -27 -3 -56 -6 -65 -8 -21 -48
-21 -65 0 -11 13 -9 15 17 12 28 -3 29 -2 32 50 4 66 22 69 22 3z m240 39 c0
-5 -13 -10 -30 -10 -20 0 -30 -5 -30 -15 0 -9 9 -15 24 -15 14 0 28 -4 31 -10
4 -6 -7 -10 -24 -10 -24 0 -31 -4 -31 -20 0 -16 7 -20 30 -20 17 0 30 -4 30
-10 0 -5 -20 -10 -45 -10 l-45 0 0 65 0 65 45 0 c25 0 45 -4 45 -10z m170 -37
l12 -48 14 48 c9 27 21 47 29 47 13 0 16 -6 30 -65 7 -30 7 -30 21 18 8 26 19
47 25 47 6 0 9 -8 6 -17 -3 -10 -11 -40 -18 -66 -17 -60 -39 -59 -55 3 l-11
45 -14 -48 c-17 -62 -38 -59 -56 8 -15 59 -16 75 -4 75 5 0 14 -21 21 -47z
m370 37 c0 -5 -13 -10 -30 -10 -20 0 -30 -5 -30 -15 0 -9 9 -15 24 -15 14 0
28 -4 31 -10 4 -6 -7 -10 -24 -10 -24 0 -31 -4 -31 -20 0 -16 7 -20 30 -20 17
0 30 -4 30 -10 0 -5 -20 -10 -45 -10 l-45 0 0 65 0 65 45 0 c25 0 45 -4 45
-10z m170 -45 c0 -54 0 -55 30 -55 17 0 30 -4 30 -10 0 -5 -20 -10 -45 -10
l-45 0 0 65 c0 51 3 65 15 65 12 0 15 -13 15 -55z m220 0 c0 -54 0 -55 30 -55
17 0 30 -4 30 -10 0 -5 -18 -10 -40 -10 l-40 0 0 65 c0 37 4 65 10 65 6 0 10
-25 10 -55z m286 -9 c24 -59 24 -87 0 -53 -16 21 -64 23 -72 2 -4 -8 -12 -15
-19 -15 -10 0 -6 18 13 65 16 40 32 64 40 63 8 -2 25 -30 38 -62z m252 31 c2
-17 -2 -29 -12 -33 -19 -7 -3 -44 19 -44 8 0 15 -4 15 -10 0 -20 -40 -9 -56
15 -9 14 -21 25 -26 25 -6 0 -8 -11 -6 -25 4 -17 1 -25 -8 -25 -10 0 -14 17
-14 66 l0 65 43 -3 c38 -3 42 -6 45 -31z m182 8 l14 -26 15 26 c9 14 22 25 29
25 10 0 8 -9 -7 -34 -12 -18 -21 -47 -21 -65 0 -21 -5 -31 -15 -31 -10 0 -15
10 -15 31 0 18 -9 47 -21 65 -16 26 -17 34 -7 34 8 0 21 -11 28 -25z"/>
<path d="M3116 3662 c-7 -12 63 -44 76 -36 6 4 -4 15 -23 25 -39 21 -46 22
-53 11z"/>
<path d="M3343 3575 c0 -8 3 -13 5 -10 3 3 15 -3 26 -12 15 -13 14 -10 -3 10
-29 32 -28 31 -28 12z"/>
<path d="M3420 3516 c0 -2 8 -10 18 -17 15 -13 16 -12 3 4 -13 16 -21 21 -21
13z"/>
<path d="M3801 2854 c0 -11 3 -14 6 -6 3 7 2 16 -1 19 -3 4 -6 -2 -5 -13z"/>
<path d="M2906 2483 c4 -25 2 -34 -4 -25 -6 9 -10 -8 -11 -50 -1 -55 2 -67 21
-85 13 -12 28 -22 33 -22 6 0 17 -23 25 -51 9 -30 19 -48 24 -43 6 5 6 0 1
-12 -5 -11 -10 -39 -13 -62 -6 -58 22 -60 39 -3 7 22 14 38 17 36 2 -3 -1 -19
-7 -37 l-11 -32 21 19 c22 19 22 19 10 -4 -12 -23 -12 -24 21 -17 90 19 159
92 157 167 -1 18 0 38 2 43 7 22 -12 112 -31 143 -36 59 -71 72 -192 72 l-107
0 5 -37z m18 -78 c5 -22 4 -26 -4 -15 -5 8 -10 24 -10 34 0 26 6 18 14 -19z
m206 -69 c0 -2 -8 -10 -17 -17 -16 -13 -17 -12 -4 4 13 16 21 21 21 13z"/>
<path d="M1499 3423 c-13 -16 -12 -17 4 -4 9 7 17 15 17 17 0 8 -8 3 -21 -13z"/>
<path d="M3006 2984 c-9 -22 -8 -24 9 -24 8 0 15 6 15 14 0 22 -17 28 -24 10z"/>
<path d="M1823 2198 c2 -7 10 -13 17 -13 7 0 15 6 18 13 2 7 -5 12 -18 12 -13
0 -20 -5 -17 -12z"/>
<path d="M1999 2194 c-16 -20 0 -49 27 -49 14 0 20 8 22 33 3 26 0 32 -16 32
-11 0 -25 -7 -33 -16z"/>
<path d="M1910 699 c0 -14 5 -19 17 -17 26 5 29 38 4 38 -15 0 -21 -6 -21 -21z"/>
<path d="M3767 689 c-7 -27 -4 -32 17 -27 12 2 13 7 2 27 l-13 23 -6 -23z"/>
<path d="M4002 703 c4 -20 18 -26 37 -14 18 12 5 31 -20 31 -14 0 -19 -6 -17
-17z"/>
</g>
</svg>
