<svg width="120" height="66" viewBox="0 0 120 66" fill="none" xmlns="http://www.w3.org/2000/svg">
<g clip-path="url(#clip0_1_4)">
<rect width="120" height="66" fill="black"/>
<g clip-path="url(#clip1_1_4)">
<rect width="26" height="51" transform="translate(20 -6)" fill="black"/>
<path d="M49.7109 11.1875C49.6328 11.4688 49.4609 11.6641 49.1953 11.7734C48.9453 11.8828 48.6562 11.9531 48.3281 11.9844C48.0156 12.0156 47.7031 12.0391 47.3906 12.0547C47.0938 12.0703 46.8672 12.1328 46.7109 12.2422C46.6172 12.3047 46.5391 12.4062 46.4766 12.5469C46.4297 12.6875 46.3828 12.8516 46.3359 13.0391C46.2891 13.2109 46.2422 13.3984 46.1953 13.6016C46.1484 13.8047 46.0938 13.9922 46.0312 14.1641C45.8594 14.3828 45.7266 14.6172 45.6328 14.8672C45.5547 15.1172 45.4922 15.3828 45.4453 15.6641C45.3984 15.9453 45.3516 16.2422 45.3047 16.5547C45.2734 16.8516 45.2188 17.1641 45.1406 17.4922C44.9375 17.8984 44.7344 18.3906 44.5312 18.9688C44.3438 19.5312 44.0781 20.1406 43.7344 20.7969C43.7031 20.875 43.6406 20.9453 43.5469 21.0078C43.4688 21.0703 43.4219 21.125 43.4062 21.1719C43.3281 21.3125 43.3047 21.4766 43.3359 21.6641C43.3672 21.8359 43.3281 22.0156 43.2188 22.2031C43.1875 22.25 43.125 22.2891 43.0312 22.3203C42.9375 22.3359 42.8828 22.3594 42.8672 22.3906C42.8047 22.5312 42.7734 22.6953 42.7734 22.8828C42.7891 23.0703 42.7578 23.25 42.6797 23.4219C42.6641 23.4688 42.6094 23.5391 42.5156 23.6328C42.4219 23.7109 42.3672 23.7656 42.3516 23.7969C42.2891 23.9844 42.2578 24.1406 42.2578 24.2656C42.2734 24.375 42.2422 24.5078 42.1641 24.6641C42.1328 24.6953 42.0938 24.7109 42.0469 24.7109C42.0156 24.6953 42 24.7344 42 24.8281V25.0156C41.6406 25.8125 41.2109 26.5859 40.7109 27.3359C40.2109 28.0703 39.7656 28.8125 39.375 29.5625C39.3438 29.625 39.3203 29.7109 39.3047 29.8203C39.2891 29.9297 39.2578 30.0156 39.2109 30.0781C39.1797 30.1094 39.1094 30.1406 39 30.1719C38.9062 30.2031 38.8516 30.2344 38.8359 30.2656C38.7734 30.4062 38.75 30.5625 38.7656 30.7344C38.7812 30.8906 38.75 31.0234 38.6719 31.1328C38.6094 31.2422 38.4922 31.3828 38.3203 31.5547C38.1484 31.7266 37.9609 31.9141 37.7578 32.1172C37.5703 32.3203 37.3906 32.5391 37.2188 32.7734C37.0625 32.9922 36.9609 33.2031 36.9141 33.4062C36.8672 33.5938 36.7734 33.8047 36.6328 34.0391C36.4922 34.2734 36.3281 34.5234 36.1406 34.7891C35.9531 35.0547 35.7578 35.3281 35.5547 35.6094C35.3516 35.875 35.1641 36.1328 34.9922 36.3828C34.9453 36.4609 34.8516 36.5859 34.7109 36.7578C34.5703 36.9297 34.4922 37.1016 34.4766 37.2734V37.4375C34.2734 37.7031 34.0469 37.9141 33.7969 38.0703C33.5469 38.2422 33.3047 38.3281 33.0703 38.3281C32.8984 38.3281 32.7266 38.2734 32.5547 38.1641C32.3984 38.0547 32.2734 37.8672 32.1797 37.6016C32.1172 37.4453 32.0781 37.2891 32.0625 37.1328C32.0625 36.9609 32.0547 36.7656 32.0391 36.5469C32.0391 36.3125 32.0078 36.0469 31.9453 35.75C31.8984 35.4375 31.8047 35.0703 31.6641 34.6484C31.6328 34.5234 31.5625 34.4375 31.4531 34.3906C31.3594 34.3438 31.3125 34.2578 31.3125 34.1328C31.3125 34.0859 31.3125 34.0391 31.3125 33.9922C31.3281 33.9297 31.3359 33.875 31.3359 33.8281C31.3359 33.75 31.3125 33.6641 31.2656 33.5703C31.2188 33.4609 31.1797 33.3516 31.1484 33.2422C31.0703 32.9141 30.9766 32.5391 30.8672 32.1172C30.7578 31.6797 30.6484 31.2344 30.5391 30.7812C30.4297 30.3281 30.3203 29.8906 30.2109 29.4688C30.1172 29.0312 30.0234 28.6562 29.9297 28.3438C29.9141 28.3125 29.9062 28.2734 29.9062 28.2266C29.9062 28.1953 29.9062 28.1562 29.9062 28.1094C29.9219 28.0625 29.9297 28.0234 29.9297 27.9922C29.8984 27.8828 29.8672 27.75 29.8359 27.5938C29.8047 27.4375 29.75 27.2109 29.6719 26.9141C29.5938 26.6172 29.4766 26.2344 29.3203 25.7656C29.1797 25.2969 28.9766 24.6953 28.7109 23.9609C28.5391 23.4453 28.4219 22.9453 28.3594 22.4609C28.2969 21.9766 28.1719 21.4219 27.9844 20.7969C27.9531 20.7188 27.9375 20.5547 27.9375 20.3047C27.9531 20.0391 27.8594 19.6797 27.6562 19.2266C27.5781 19.0547 27.5391 18.8906 27.5391 18.7344C27.5547 18.5625 27.5312 18.3203 27.4688 18.0078C27.4219 17.7734 27.3516 17.4062 27.2578 16.9062C27.1797 16.4062 27.0859 15.8984 26.9766 15.3828C26.8672 14.8516 26.7578 14.3828 26.6484 13.9766C26.5547 13.5703 26.4766 13.3438 26.4141 13.2969C26.3828 13.2656 26.2656 13.25 26.0625 13.25C25.8906 13.25 25.75 13.2734 25.6406 13.3203C25.5469 13.3516 25.4609 13.3984 25.3828 13.4609C25.3203 13.5078 25.2578 13.5547 25.1953 13.6016C25.1484 13.6328 25.0938 13.6484 25.0312 13.6484H24.7969C24.5312 13.6484 24.2969 13.6094 24.0938 13.5312C23.8906 13.4531 23.7891 13.2734 23.7891 12.9922C23.7891 12.7734 23.8672 12.625 24.0234 12.5469C24.1797 12.4688 24.375 12.4219 24.6094 12.4062C24.8594 12.3906 25.1406 12.3828 25.4531 12.3828C25.7656 12.3672 26.0859 12.3203 26.4141 12.2422C26.6328 12.1953 26.8203 12.1172 26.9766 12.0078C27.1328 11.8984 27.2969 11.7969 27.4688 11.7031C27.5469 11.6719 27.6562 11.6562 27.7969 11.6562C27.9375 11.6406 28.0625 11.6016 28.1719 11.5391C28.2188 11.5078 28.25 11.4766 28.2656 11.4453C28.2812 11.3984 28.2969 11.3594 28.3125 11.3281C28.3438 11.2812 28.3828 11.2422 28.4297 11.2109C28.4922 11.1797 28.5859 11.1641 28.7109 11.1641C28.9141 11.1641 29.1094 11.1953 29.2969 11.2578C29.5 11.3203 29.7109 11.3516 29.9297 11.3516C30.3047 11.3516 30.7031 11.2891 31.125 11.1641C31.5469 11.0391 31.9375 10.9766 32.2969 10.9766C32.4844 10.9766 32.6562 11.0078 32.8125 11.0703C32.9688 11.1172 33.1094 11.2109 33.2344 11.3516C33.2031 11.5703 33.0469 11.7188 32.7656 11.7969C32.4844 11.8594 32.1797 11.9062 31.8516 11.9375C31.5391 11.9688 31.25 12.0156 30.9844 12.0781C30.7188 12.125 30.5859 12.2344 30.5859 12.4062C30.5859 12.9375 30.6328 13.5156 30.7266 14.1406C30.8203 14.75 30.9219 15.3281 31.0312 15.875C31.1406 16.4062 31.2422 16.875 31.3359 17.2812C31.4297 17.6719 31.4844 17.9141 31.5 18.0078C31.5781 18.6641 31.6406 19.3281 31.6875 20C31.7344 20.6719 31.8438 21.3516 32.0156 22.0391C32.0469 22.2109 32.0625 22.4062 32.0625 22.625C32.0625 22.8438 32.1016 23.1094 32.1797 23.4219C32.1953 23.5312 32.2422 23.7109 32.3203 23.9609C32.4141 24.2109 32.5 24.4766 32.5781 24.7578C32.6562 25.0234 32.7266 25.2812 32.7891 25.5312C32.8672 25.7656 32.9062 25.9375 32.9062 26.0469C32.9062 26.125 32.8984 26.2109 32.8828 26.3047C32.8828 26.3984 32.8828 26.4844 32.8828 26.5625C32.8828 26.75 32.9453 26.9844 33.0703 27.2656C33.1953 27.5312 33.3125 27.8281 33.4219 28.1562C33.4531 28.25 33.4844 28.3281 33.5156 28.3906C33.5625 28.4375 33.5859 28.4766 33.5859 28.5078C33.6797 28.7891 33.7344 29.0938 33.75 29.4219C33.7812 29.75 33.8516 30.0938 33.9609 30.4531C34.0547 30.6406 34.1484 30.9141 34.2422 31.2734C34.3516 31.6328 34.4609 31.9922 34.5703 32.3516C34.6797 32.7109 34.7891 33.0234 34.8984 33.2891C35.0234 33.5547 35.1562 33.6875 35.2969 33.6875C35.375 33.6875 35.4453 33.6328 35.5078 33.5234C35.5859 33.4141 35.6641 33.2891 35.7422 33.1484C35.8203 32.9922 35.8984 32.8281 35.9766 32.6562C36.0547 32.4844 36.1328 32.3281 36.2109 32.1875C36.4297 31.8281 36.6406 31.5156 36.8438 31.25C37.0469 30.9688 37.1875 30.7578 37.2656 30.6172C37.3281 30.5234 37.3594 30.4375 37.3594 30.3594C37.3594 30.2656 37.3828 30.1719 37.4297 30.0781L38.6719 28.1562C38.7031 28.0938 38.7266 28.0156 38.7422 27.9219C38.7578 27.8125 38.7891 27.7188 38.8359 27.6406C38.8984 27.5625 38.9531 27.5234 39 27.5234C39.0625 27.5078 39.1094 27.4766 39.1406 27.4297C39.1875 27.3828 39.2188 27.2969 39.2344 27.1719C39.2656 27.0469 39.2812 26.8203 39.2812 26.4922C39.2812 26.3203 39.3047 26.1875 39.3516 26.0938C39.3984 25.9844 39.4453 25.9062 39.4922 25.8594C39.5547 25.8125 39.6094 25.7734 39.6562 25.7422C39.7031 25.7109 39.7266 25.6797 39.7266 25.6484C39.7266 25.6172 39.7188 25.5859 39.7031 25.5547C39.7031 25.5078 39.7031 25.4688 39.7031 25.4375C39.7031 25.4062 39.7109 25.3828 39.7266 25.3672C39.8203 25.1797 39.9297 24.9453 40.0547 24.6641C40.1797 24.3828 40.2969 24.0938 40.4062 23.7969C40.5312 23.5 40.6562 23.2109 40.7812 22.9297C40.9062 22.6484 41.0156 22.4062 41.1094 22.2031C41.2656 22 41.375 21.8672 41.4375 21.8047C41.5 21.7422 41.5312 21.6094 41.5312 21.4062V21.1484C41.5312 20.9766 41.5547 20.875 41.6016 20.8438C41.6641 20.8125 41.7422 20.6875 41.8359 20.4688C41.9141 20.125 41.9531 19.7891 41.9531 19.4609C41.9531 19.1172 42.0234 18.8125 42.1641 18.5469C42.3203 18.25 42.4609 17.8984 42.5859 17.4922C42.7109 17.0703 42.8203 16.625 42.9141 16.1562C43.0234 15.6719 43.1172 15.1875 43.1953 14.7031C43.2734 14.2031 43.3438 13.7344 43.4062 13.2969C43.3438 13.3281 43.2969 13.3438 43.2656 13.3438C43.1875 13.3438 43.1016 13.3281 43.0078 13.2969C42.9297 13.2656 42.8281 13.25 42.7031 13.25C42.5781 13.25 42.4766 13.2734 42.3984 13.3203C42.3203 13.3516 42.25 13.3984 42.1875 13.4609C42.125 13.5078 42.0625 13.5547 42 13.6016C41.9531 13.6328 41.8984 13.6484 41.8359 13.6484C41.7422 13.6484 41.6328 13.6484 41.5078 13.6484C41.3984 13.6328 41.2812 13.6094 41.1562 13.5781C41.0469 13.5312 40.9531 13.4688 40.875 13.3906C40.7969 13.3125 40.7578 13.2031 40.7578 13.0625C40.7578 12.6719 40.9297 12.4375 41.2734 12.3594C41.6172 12.2656 42.0859 12.2188 42.6797 12.2188C43.1484 12.2188 43.5859 12.1094 43.9922 11.8906C44.4141 11.6719 44.8516 11.3828 45.3047 11.0234C45.3516 10.9922 45.4219 10.9297 45.5156 10.8359C45.625 10.7266 45.7188 10.6719 45.7969 10.6719H45.8438C46.0469 10.6719 46.1875 10.7109 46.2656 10.7891C46.3438 10.8516 46.3906 10.9297 46.4062 11.0234C46.4375 11.1016 46.4531 11.1797 46.4531 11.2578C46.4688 11.3203 46.5078 11.3516 46.5703 11.3516C46.6797 11.3516 46.8359 11.3281 47.0391 11.2812C47.2422 11.2344 47.4531 11.1875 47.6719 11.1406C47.9062 11.0781 48.1406 11.0234 48.375 10.9766C48.6094 10.9297 48.8281 10.9062 49.0312 10.9062C49.375 10.9062 49.6016 11 49.7109 11.1875Z" fill="#F5F5F5"/>
</g>
<g clip-path="url(#clip2_1_4)">
<rect width="25" height="56" transform="translate(46 2)" fill="black"/>
<path d="M67.5312 16.7031C67.4844 16.8906 67.4062 17.0547 67.2969 17.1953C67.2031 17.3359 67.0938 17.4766 66.9688 17.6172C66.8594 17.7422 66.7422 17.875 66.6172 18.0156C66.5078 18.1562 66.4062 18.3125 66.3125 18.4844C66.2969 18.5 66.2891 18.5312 66.2891 18.5781C66.2891 18.625 66.2969 18.6797 66.3125 18.7422C66.3281 18.7891 66.3359 18.8438 66.3359 18.9062C66.3359 18.9062 66.2734 18.9688 66.1484 19.0938C66.0391 19.2031 65.9141 19.3438 65.7734 19.5156C65.6484 19.6719 65.5234 19.8438 65.3984 20.0312C65.2891 20.2031 65.2344 20.3438 65.2344 20.4531C65.2344 20.4844 65.2344 20.5234 65.2344 20.5703C65.25 20.6172 65.2578 20.6562 65.2578 20.6875V20.7344C65.0859 20.875 64.9219 21.0703 64.7656 21.3203C64.6094 21.5547 64.4609 21.8125 64.3203 22.0938C64.1797 22.375 64.0391 22.6641 63.8984 22.9609C63.7734 23.2422 63.6484 23.5 63.5234 23.7344C63.4141 23.9531 63.3203 24.1484 63.2422 24.3203C63.1641 24.4922 63.0781 24.7578 62.9844 25.1172C62.9219 25.3516 62.8594 25.5234 62.7969 25.6328C62.75 25.7266 62.6875 25.8047 62.6094 25.8672C62.5469 25.9297 62.4688 25.9922 62.375 26.0547C62.2969 26.1016 62.2109 26.2031 62.1172 26.3594C62.1016 26.375 62.0938 26.3906 62.0938 26.4062C62.0938 26.4375 62.0938 26.4766 62.0938 26.5234C62.1094 26.5703 62.1172 26.6094 62.1172 26.6406C62.1172 26.6719 62.0625 26.7344 61.9531 26.8281C61.8594 26.9219 61.7891 26.9922 61.7422 27.0391C61.6641 27.1641 61.6094 27.3125 61.5781 27.4844C61.5469 27.6562 61.4922 27.8047 61.4141 27.9297C61.3359 28.0391 61.2422 28.125 61.1328 28.1875C61.0234 28.25 60.9453 28.3359 60.8984 28.4453C60.6172 28.8828 60.3516 29.3438 60.1016 29.8281C59.8516 30.2969 59.5859 30.7656 59.3047 31.2344C58.8984 31.9375 58.5 32.6016 58.1094 33.2266C57.7344 33.8516 57.375 34.5312 57.0312 35.2656C57.0312 35.2812 56.9844 35.3906 56.8906 35.5938C56.7969 35.7969 56.6641 36.0391 56.4922 36.3203C56.4297 36.4453 56.3438 36.5469 56.2344 36.625C56.125 36.6875 56.0391 36.7656 55.9766 36.8594C55.8984 37 55.8438 37.1406 55.8125 37.2812C55.7969 37.4219 55.7422 37.5625 55.6484 37.7031C55.5859 37.7969 55.4922 37.8906 55.3672 37.9844C55.2578 38.0625 55.1719 38.1484 55.1094 38.2422C54.9531 38.4922 54.8125 38.7734 54.6875 39.0859C54.5781 39.3984 54.4844 39.6406 54.4062 39.8125C54.1406 40.3594 53.8438 40.9375 53.5156 41.5469C53.1875 42.1562 52.8438 42.8047 52.4844 43.4922C52.3125 43.8047 52.0938 44.1641 51.8281 44.5703C51.5781 44.9766 51.2734 45.5547 50.9141 46.3047C50.7891 46.5391 50.6875 46.7969 50.6094 47.0781C50.5312 47.3594 50.4453 47.6172 50.3516 47.8516C50.2578 48.1016 50.1406 48.3047 50 48.4609C49.875 48.6328 49.6875 48.7188 49.4375 48.7188C49.1719 48.7188 48.9531 48.6562 48.7812 48.5312C48.625 48.4062 48.4922 48.2656 48.3828 48.1094C48.2734 47.9531 48.1953 47.8047 48.1484 47.6641C48.1172 47.5234 48.1016 47.4375 48.1016 47.4062C48.1016 47.25 48.1328 47.125 48.1953 47.0312C48.2578 46.9531 48.3281 46.8828 48.4062 46.8203C48.5 46.7578 48.5938 46.6875 48.6875 46.6094C48.7969 46.5469 48.8984 46.4453 48.9922 46.3047C49.0859 46.0547 49.2109 45.8672 49.3672 45.7422C49.5234 45.6016 49.6875 45.4375 49.8594 45.25C49.9062 45.1719 49.9297 45.0859 49.9297 44.9922C49.9453 44.8984 49.9766 44.8125 50.0234 44.7344C50.1016 44.625 50.2109 44.5156 50.3516 44.4062C50.4922 44.2969 50.5625 44.0859 50.5625 43.7734C50.5625 43.7266 50.5547 43.6797 50.5391 43.6328C50.5391 43.5859 50.5391 43.5391 50.5391 43.4922C50.5391 43.3672 50.5469 43.25 50.5625 43.1406C50.5781 43.0625 50.6016 42.9844 50.6328 42.9062C50.6641 42.8281 50.7109 42.7891 50.7734 42.7891C50.8047 42.7891 50.8438 42.7969 50.8906 42.8125C50.9375 42.8125 50.9766 42.8125 51.0078 42.8125C51.0703 42.8125 51.1016 42.7812 51.1016 42.7188C51.1016 42.6875 51.0938 42.6484 51.0781 42.6016C51.0625 42.5547 51.0547 42.5156 51.0547 42.4844C51.0547 42.4531 51.0703 42.4375 51.1016 42.4375C51.1172 42.4375 51.1328 42.4453 51.1484 42.4609C51.1797 42.4609 51.2031 42.4609 51.2188 42.4609C51.2656 42.4609 51.3047 42.3828 51.3359 42.2266C51.3672 42.0703 51.3984 41.9688 51.4297 41.9219C51.4609 41.875 51.5156 41.8438 51.5938 41.8281C51.6875 41.8125 51.75 41.7812 51.7812 41.7344C51.8281 41.6719 51.8516 41.5938 51.8516 41.5C51.8672 41.3906 51.9062 41.2969 51.9688 41.2188C52 41.1875 52.0547 41.1641 52.1328 41.1484C52.2266 41.1172 52.2812 41.0859 52.2969 41.0547C52.375 40.9297 52.4297 40.7812 52.4609 40.6094C52.5078 40.4375 52.5703 40.2891 52.6484 40.1641C52.9297 39.6797 53.2188 39.1875 53.5156 38.6875C53.8281 38.1875 54.125 37.6875 54.4062 37.1875C54.9531 36.2188 55.4766 35.2031 55.9766 34.1406C56.4766 33.0781 57 31.9922 57.5469 30.8828C57.6719 30.6172 57.8125 30.3594 57.9688 30.1094C58.1406 29.8594 58.2969 29.5938 58.4375 29.3125C58.5625 29.0469 58.6719 28.7656 58.7656 28.4688C58.875 28.1562 58.9922 27.8594 59.1172 27.5781C59.4766 26.7656 59.875 25.9844 60.3125 25.2344C60.7656 24.4844 61.1875 23.6875 61.5781 22.8438C61.7031 22.5781 61.8203 22.3281 61.9297 22.0938C62.0391 21.8438 62.1406 21.5938 62.2344 21.3438C62.3438 21.0781 62.4609 20.7969 62.5859 20.5C62.7109 20.2031 62.8438 19.875 62.9844 19.5156C63.1094 19.2188 63.1953 18.8984 63.2422 18.5547C63.3047 18.1953 63.3984 17.9297 63.5234 17.7578C63.6172 17.6016 63.8125 17.4453 64.1094 17.2891C64.4219 17.1172 64.75 16.9219 65.0938 16.7031C65.2188 16.625 65.3281 16.5391 65.4219 16.4453C65.5156 16.3516 65.6328 16.2656 65.7734 16.1875C65.9297 16.1094 66.0859 16.0547 66.2422 16.0234C66.3984 15.9766 66.5391 15.9219 66.6641 15.8594C66.7578 15.7813 66.8359 15.6719 66.8984 15.5312C66.9766 15.375 67.1484 15.2969 67.4141 15.2969C67.5547 15.2969 67.6484 15.3672 67.6953 15.5078C67.7578 15.6484 67.7891 15.7578 67.7891 15.8359C67.7891 16.0078 67.75 16.1719 67.6719 16.3281C67.6094 16.4844 67.5625 16.6094 67.5312 16.7031Z" fill="#F5F5F5"/>
</g>
<g clip-path="url(#clip3_1_4)">
<rect width="32" height="56" transform="translate(71 7)" fill="black"/>
<path d="M99.9844 51.9844C99.9844 52.125 99.9219 52.2734 99.7969 52.4297C99.6875 52.5703 99.5547 52.7188 99.3984 52.875C99.2578 53.0156 99.1094 53.1641 98.9531 53.3203C98.7969 53.4609 98.6719 53.5938 98.5781 53.7188C98.5 53.8281 98.4375 53.9688 98.3906 54.1406C98.3594 54.3125 98.3047 54.4688 98.2266 54.6094C98.0391 54.9688 97.7891 55.2812 97.4766 55.5469C97.1641 55.8125 96.8281 56.1406 96.4688 56.5312C96.3281 56.6875 96.1953 56.8438 96.0703 57C95.9609 57.1562 95.8438 57.2969 95.7188 57.4219C95.6094 57.5625 95.4766 57.6719 95.3203 57.75C95.1797 57.8281 95.0078 57.8672 94.8047 57.8672C94.5859 57.8672 94.4141 57.8359 94.2891 57.7734C94.1797 57.7109 94.0703 57.6328 93.9609 57.5391C93.8672 57.4609 93.7578 57.375 93.6328 57.2812C93.5234 57.1875 93.3672 57.1094 93.1641 57.0469C92.9297 56.9844 92.6172 56.75 92.2266 56.3438C91.8516 55.9375 91.4609 55.4141 91.0547 54.7734C91.0234 54.7266 90.9844 54.7109 90.9375 54.7266C90.9062 54.7422 90.8906 54.7031 90.8906 54.6094C90.8906 54.5156 90.8203 54.4141 90.6797 54.3047C90.5547 54.1797 90.4141 54.0625 90.2578 53.9531C90.1172 53.8281 89.9766 53.7188 89.8359 53.625C89.7109 53.5312 89.6484 53.4531 89.6484 53.3906C89.6484 53.2969 89.6016 53.2109 89.5078 53.1328C89.4297 53.0391 89.3281 52.9531 89.2031 52.875C89.0938 52.7812 88.9766 52.6953 88.8516 52.6172C88.7422 52.5234 88.6562 52.4297 88.5938 52.3359C88.4844 52.1172 88.3516 51.9141 88.1953 51.7266C88.0391 51.5391 87.875 51.3594 87.7031 51.1875C87.5312 51 87.3594 50.8203 87.1875 50.6484C87.0156 50.4609 86.8516 50.2578 86.6953 50.0391C86.6016 49.9141 86.5234 49.7812 86.4609 49.6406C86.3984 49.5 86.3516 49.4062 86.3203 49.3594C86.1172 49.1094 85.8438 48.8516 85.5 48.5859C85.1562 48.3047 84.8203 48.0234 84.4922 47.7422C84.1641 47.4453 83.8828 47.1562 83.6484 46.875C83.4141 46.5781 83.2969 46.2969 83.2969 46.0312C83.2969 45.9531 83.3281 45.8438 83.3906 45.7031C83.4688 45.5625 83.6094 45.4922 83.8125 45.4922C83.8594 45.4922 83.9062 45.5 83.9531 45.5156C84 45.5156 84.0391 45.5156 84.0703 45.5156C84.1016 45.5 84.1797 45.4609 84.3047 45.3984C84.4453 45.3203 84.5859 45.2344 84.7266 45.1406C84.8984 45.0469 85.0859 44.9297 85.2891 44.7891C85.5859 44.6172 85.9766 44.375 86.4609 44.0625C86.9609 43.7344 87.4766 43.3594 88.0078 42.9375C88.5391 42.5156 89.0469 42.0625 89.5312 41.5781C90.0156 41.0938 90.4062 40.5938 90.7031 40.0781C90.8125 39.9062 90.9141 39.7734 91.0078 39.6797C91.1172 39.5859 91.1719 39.4141 91.1719 39.1641C91.1719 39.0078 91.1172 38.8203 91.0078 38.6016C90.9141 38.3828 90.7812 38.1641 90.6094 37.9453C90.4531 37.7266 90.2734 37.5156 90.0703 37.3125C89.8828 37.0938 89.6875 36.9062 89.4844 36.75C89.3594 36.6406 89.2031 36.5547 89.0156 36.4922C88.8281 36.4141 88.6875 36.3281 88.5938 36.2344C88.4531 36.0469 88.3672 35.8281 88.3359 35.5781C88.3203 35.3125 88.2344 35.125 88.0781 35.0156C87.9844 34.9375 87.7969 34.9062 87.5156 34.9219C87.2344 34.9219 87.0156 34.8906 86.8594 34.8281C86.8125 34.7969 86.7578 34.7422 86.6953 34.6641C86.6484 34.5703 86.5859 34.5078 86.5078 34.4766C86.4141 34.4141 86.3203 34.375 86.2266 34.3594C86.1484 34.3438 86.0625 34.3203 85.9688 34.2891C85.9375 34.2891 85.8906 34.25 85.8281 34.1719C85.7656 34.0938 85.6641 34.0156 85.5234 33.9375C85.3828 33.8594 85.2031 33.7891 84.9844 33.7266C84.7656 33.6484 84.4922 33.6094 84.1641 33.6094C83.9453 33.6094 83.7656 33.7344 83.625 33.9844C83.5 34.2188 83.3984 34.5312 83.3203 34.9219C83.2422 35.2969 83.1875 35.7266 83.1562 36.2109C83.125 36.6953 83.1016 37.1875 83.0859 37.6875C83.0703 38.1719 83.0625 38.6484 83.0625 39.1172C83.0625 39.5703 83.0469 39.9531 83.0156 40.2656C82.9219 41.5625 82.7578 42.8828 82.5234 44.2266C82.3047 45.5547 82.1172 46.9688 81.9609 48.4688V48.5391C81.9609 48.6016 81.9609 48.6641 81.9609 48.7266C81.9766 48.7734 81.9844 48.8203 81.9844 48.8672C81.9844 48.9141 81.9609 48.9844 81.9141 49.0781C81.8828 49.1562 81.8359 49.1953 81.7734 49.1953C81.7734 49.3672 81.7812 49.4766 81.7969 49.5234C81.8281 49.5547 81.8438 49.625 81.8438 49.7344C81.8438 49.7812 81.8359 49.8438 81.8203 49.9219C81.8203 50 81.8047 50.1016 81.7734 50.2266C81.6953 50.5703 81.6328 50.9766 81.5859 51.4453C81.5391 51.8984 81.4922 52.3828 81.4453 52.8984C81.4141 53.4141 81.3828 53.9375 81.3516 54.4688C81.3359 55 81.3047 55.5156 81.2578 56.0156C81.2891 56.0156 81.3203 56.0234 81.3516 56.0391C81.3828 56.0391 81.4141 56.0391 81.4453 56.0391C81.7422 56.0391 82.0312 56 82.3125 55.9219C82.6094 55.8281 82.8906 55.7812 83.1562 55.7812C83.4375 55.7812 83.6797 55.8594 83.8828 56.0156C83.8359 56.2344 83.7344 56.3906 83.5781 56.4844C83.4219 56.5781 83.2344 56.6484 83.0156 56.6953C82.7969 56.7422 82.5625 56.7734 82.3125 56.7891C82.0625 56.8047 81.8281 56.8281 81.6094 56.8594C81.5781 56.875 81.5312 56.9141 81.4688 56.9766C81.4219 57.0234 81.3516 57.0469 81.2578 57.0469C81.0234 57.0625 80.7656 57.1172 80.4844 57.2109C80.2188 57.3047 79.9453 57.4062 79.6641 57.5156C79.3828 57.625 79.1016 57.7266 78.8203 57.8203C78.5547 57.9141 78.2969 57.9609 78.0469 57.9609C77.875 57.9609 77.7344 57.9375 77.625 57.8906C77.5156 57.8594 77.3984 57.8438 77.2734 57.8438C77.1016 57.8438 76.9844 57.8828 76.9219 57.9609C76.8594 58.0391 76.7891 58.0859 76.7109 58.1016C76.3828 58.1797 76 58.2891 75.5625 58.4297C75.125 58.5859 74.7422 58.6641 74.4141 58.6641C74.2422 58.6641 74.0859 58.6328 73.9453 58.5703C73.8203 58.5391 73.7188 58.4766 73.6406 58.3828C73.5625 58.3047 73.5391 58.2031 73.5703 58.0781C73.5391 57.9844 73.5234 57.9141 73.5234 57.8672C73.5234 57.6641 73.6094 57.5078 73.7812 57.3984C73.9688 57.2891 74.1953 57.2031 74.4609 57.1406C74.7422 57.0781 75.0469 57.0312 75.375 57C75.7188 56.9531 76.0469 56.9062 76.3594 56.8594C76.3906 56.8594 76.4297 56.8672 76.4766 56.8828C76.5234 56.8828 76.5859 56.8828 76.6641 56.8828C77.0703 56.8828 77.3438 56.6641 77.4844 56.2266C77.6406 55.7891 77.7891 55.0703 77.9297 54.0703C77.9297 54.0547 77.9375 54.0234 77.9531 53.9766C77.9688 53.9141 78.0234 53.8281 78.1172 53.7188C78.1172 53.5469 78.0859 53.4062 78.0234 53.2969C77.9609 53.1719 77.9297 53.0469 77.9297 52.9219C77.9297 52.875 77.9531 52.8281 78 52.7812C78.0469 52.7188 78.0859 52.625 78.1172 52.5C78.1484 52.1562 78.1953 51.7734 78.2578 51.3516C78.3359 50.9141 78.4141 50.4531 78.4922 49.9688C78.5703 49.4844 78.6406 48.9844 78.7031 48.4688C78.7656 47.9375 78.8047 47.4141 78.8203 46.8984C78.8203 46.5547 78.8281 46.2344 78.8438 45.9375C78.8594 45.6406 78.9062 45.3203 78.9844 44.9766C79 44.9141 79.0078 44.8672 79.0078 44.8359C79.0234 44.7891 79.0312 44.7422 79.0312 44.6953C79.0312 44.6016 79.0234 44.4922 79.0078 44.3672C78.9922 44.2422 78.9844 44.0312 78.9844 43.7344C78.9844 43.2656 79.0312 42.7344 79.125 42.1406C79.2188 41.5469 79.2891 40.9219 79.3359 40.2656C79.3672 39.7969 79.3984 39.3672 79.4297 38.9766C79.4609 38.5859 79.4922 38.2031 79.5234 37.8281C79.5547 37.4375 79.5938 37.0469 79.6406 36.6562C79.7031 36.25 79.7734 35.8125 79.8516 35.3438C79.8828 35.2188 79.9297 35 79.9922 34.6875C80.0547 34.375 80.0859 34.1094 80.0859 33.8906C80.0859 33.6719 80.0156 33.5391 79.875 33.4922C79.75 33.4297 79.6016 33.3984 79.4297 33.3984C78.8203 33.3984 78.3125 33.5234 77.9062 33.7734C77.5 34.0234 77.1484 34.2969 76.8516 34.5938C76.5547 34.875 76.2891 35.1406 76.0547 35.3906C75.8203 35.6406 75.5625 35.7656 75.2812 35.7656C75.2031 35.7656 75.125 35.75 75.0469 35.7188C74.9844 35.6875 74.9531 35.6016 74.9531 35.4609C74.9531 35.1484 75.0469 34.8828 75.2344 34.6641C75.4219 34.4297 75.6172 34.1953 75.8203 33.9609C75.8984 33.8828 75.9844 33.8516 76.0781 33.8672C76.1875 33.8672 76.2812 33.8359 76.3594 33.7734C76.4844 33.6484 76.6016 33.4766 76.7109 33.2578C76.8203 33.0234 76.9375 32.8438 77.0625 32.7188C77.1406 32.6406 77.2266 32.6094 77.3203 32.625C77.4141 32.6406 77.5078 32.6172 77.6016 32.5547L77.9297 32.1797C78.0078 32.0859 78.0781 31.9922 78.1406 31.8984C78.2188 31.8047 78.2656 31.7266 78.2812 31.6641C78.2812 31.6484 78.3359 31.5703 78.4453 31.4297C78.5547 31.2891 78.6797 31.1406 78.8203 30.9844C78.9609 30.8125 79.0938 30.6641 79.2188 30.5391C79.3594 30.3984 79.4531 30.3125 79.5 30.2812C79.6406 30.2031 79.8047 30.1562 79.9922 30.1406C80.1953 30.1094 80.3906 30.0938 80.5781 30.0938C80.7812 30.0781 80.9688 30.0625 81.1406 30.0469C81.3281 30.0312 81.4844 29.9922 81.6094 29.9297C81.7344 29.8516 81.8047 29.7734 81.8203 29.6953C81.8516 29.6016 81.9531 29.4453 82.125 29.2266C82.2031 29.1172 82.3281 29.0234 82.5 28.9453C82.6719 28.8672 82.7812 28.7891 82.8281 28.7109C82.8281 28.6953 82.8438 28.5781 82.875 28.3594C82.9062 28.125 82.9609 27.875 83.0391 27.6094C83.1328 27.3438 83.25 27.1016 83.3906 26.8828C83.5469 26.6641 83.75 26.5547 84 26.5547C84.125 26.5547 84.2266 26.625 84.3047 26.7656C84.3828 26.8906 84.4766 26.9531 84.5859 26.9531V27.0469C84.5859 27.2188 84.5469 27.4375 84.4688 27.7031C84.3906 27.9531 84.3047 28.2109 84.2109 28.4766C84.1172 28.7266 84.0312 28.9609 83.9531 29.1797C83.875 29.3828 83.8359 29.5156 83.8359 29.5781C83.8359 29.8125 83.9297 30 84.1172 30.1406C84.3047 30.2656 84.5547 30.3828 84.8672 30.4922C85.1953 30.6016 85.5703 30.7031 85.9922 30.7969C86.4297 30.8906 86.8906 31.0078 87.375 31.1484C87.7031 31.2422 87.9766 31.3438 88.1953 31.4531C88.4297 31.5625 88.6484 31.6797 88.8516 31.8047C89.0547 31.9141 89.2578 32.0312 89.4609 32.1562C89.6641 32.2812 89.8984 32.4141 90.1641 32.5547C90.2422 32.5859 90.3594 32.6094 90.5156 32.625C90.6875 32.625 90.8125 32.6562 90.8906 32.7188C91.0625 32.8438 91.2031 33.0078 91.3125 33.2109C91.4375 33.4141 91.5859 33.6016 91.7578 33.7734C91.9453 33.9609 92.1719 34.1797 92.4375 34.4297C92.7188 34.6797 92.9922 34.9297 93.2578 35.1797C93.5234 35.4141 93.75 35.6406 93.9375 35.8594C94.125 36.0781 94.2188 36.2422 94.2188 36.3516C94.2188 36.4141 94.2109 36.4922 94.1953 36.5859C94.1797 36.6641 94.1719 36.7344 94.1719 36.7969C94.1719 36.875 94.1953 36.9375 94.2422 36.9844C94.2891 37.0312 94.3125 37.0938 94.3125 37.1719C94.3125 37.2969 94.2656 37.4375 94.1719 37.5938C94.0938 37.7344 93.9844 37.9219 93.8438 38.1562C93.7812 38.2812 93.7578 38.3984 93.7734 38.5078C93.7891 38.6172 93.7578 38.7344 93.6797 38.8594C93.6328 38.9375 93.5547 38.9766 93.4453 38.9766C93.3516 38.9609 93.3047 39 93.3047 39.0938C93.3047 39.125 93.3047 39.1641 93.3047 39.2109C93.3203 39.2578 93.3281 39.2969 93.3281 39.3281C93.3281 39.4531 93.2422 39.5781 93.0703 39.7031C92.8984 39.8281 92.6953 39.9609 92.4609 40.1016C92.2422 40.2266 92.0234 40.3594 91.8047 40.5C91.6016 40.6406 91.4688 40.7891 91.4062 40.9453V40.9688C91.4062 41 91.4062 41.0469 91.4062 41.1094C91.4219 41.1562 91.4297 41.1953 91.4297 41.2266C91.4297 41.2734 91.3984 41.3203 91.3359 41.3672C91.2734 41.3984 91.2031 41.4297 91.125 41.4609C91.0469 41.4922 90.9688 41.5234 90.8906 41.5547C90.8125 41.5859 90.75 41.6172 90.7031 41.6484C90.625 41.6953 90.5312 41.7891 90.4219 41.9297C90.3281 42.0547 90.2188 42.1953 90.0938 42.3516C89.9844 42.4922 89.875 42.6328 89.7656 42.7734C89.6562 42.8984 89.5625 42.9922 89.4844 43.0547C89.3906 43.1328 89.2344 43.2188 89.0156 43.3125C88.7969 43.4062 88.5781 43.5078 88.3594 43.6172C88.1406 43.7266 87.9453 43.8438 87.7734 43.9688C87.6172 44.0781 87.5391 44.1875 87.5391 44.2969C87.5391 44.375 87.6094 44.5312 87.75 44.7656C87.9062 44.9844 88.0703 45.2109 88.2422 45.4453C88.4453 45.7266 88.6797 46.0312 88.9453 46.3594C88.9453 46.4844 89.0781 46.7109 89.3438 47.0391C89.6094 47.3672 89.9141 47.7344 90.2578 48.1406C90.6172 48.5312 90.9688 48.9219 91.3125 49.3125C91.6719 49.6875 91.9375 49.9922 92.1094 50.2266C92.1875 50.3203 92.2734 50.4062 92.3672 50.4844C92.4609 50.5469 92.5469 50.6406 92.625 50.7656C92.7031 50.8438 92.7344 50.9297 92.7188 51.0234C92.7188 51.1172 92.7422 51.2031 92.7891 51.2812C92.8359 51.3125 92.8984 51.3438 92.9766 51.375C93.0703 51.3906 93.1328 51.4141 93.1641 51.4453C93.6016 52.0547 93.9531 52.5547 94.2188 52.9453C94.4844 53.3203 94.7031 53.625 94.875 53.8594C95.0625 54.0781 95.2266 54.2266 95.3672 54.3047C95.5234 54.3828 95.7031 54.4219 95.9062 54.4219C96.1562 54.4219 96.4297 54.3438 96.7266 54.1875C97.0391 54.0312 97.3203 53.8516 97.5703 53.6484C97.8359 53.4297 98.0547 53.2188 98.2266 53.0156C98.4141 52.8125 98.5078 52.6641 98.5078 52.5703V52.5C98.5078 52.4688 98.5156 52.4219 98.5312 52.3594C98.5625 52.2812 98.6406 52.1562 98.7656 51.9844C98.875 51.8125 98.9766 51.6484 99.0703 51.4922C99.1797 51.3359 99.3203 51.2578 99.4922 51.2578C99.5703 51.2578 99.6719 51.3125 99.7969 51.4219C99.9219 51.5312 99.9844 51.7188 99.9844 51.9844Z" fill="#F5F5F5"/>
</g>
</g>
<defs>
<clipPath id="clip0_1_4">
<rect width="120" height="66" fill="white"/>
</clipPath>
<clipPath id="clip1_1_4">
<rect width="26" height="51" fill="white" transform="translate(20 -6)"/>
</clipPath>
<clipPath id="clip2_1_4">
<rect width="25" height="56" fill="white" transform="translate(46 2)"/>
</clipPath>
<clipPath id="clip3_1_4">
<rect width="32" height="56" fill="white" transform="translate(71 7)"/>
</clipPath>
</defs>
</svg>
