<svg width="83" height="66" viewBox="0 0 83 66" fill="none" xmlns="http://www.w3.org/2000/svg">
<g clip-path="url(#clip0_1_4)">
<rect width="83" height="66" fill="#F5F5F5"/>
<g clip-path="url(#clip1_1_4)">
<rect width="26" height="51" transform="translate(0 -6)" fill="#F5F5F5"/>
<path d="M29.7109 11.1875C29.6328 11.4688 29.4609 11.6641 29.1953 11.7734C28.9453 11.8828 28.6562 11.9531 28.3281 11.9844C28.0156 12.0156 27.7031 12.0391 27.3906 12.0547C27.0938 12.0703 26.8672 12.1328 26.7109 12.2422C26.6172 12.3047 26.5391 12.4062 26.4766 12.5469C26.4297 12.6875 26.3828 12.8516 26.3359 13.0391C26.2891 13.2109 26.2422 13.3984 26.1953 13.6016C26.1484 13.8047 26.0938 13.9922 26.0312 14.1641C25.8594 14.3828 25.7266 14.6172 25.6328 14.8672C25.5547 15.1172 25.4922 15.3828 25.4453 15.6641C25.3984 15.9453 25.3516 16.2422 25.3047 16.5547C25.2734 16.8516 25.2188 17.1641 25.1406 17.4922C24.9375 17.8984 24.7344 18.3906 24.5312 18.9688C24.3438 19.5312 24.0781 20.1406 23.7344 20.7969C23.7031 20.875 23.6406 20.9453 23.5469 21.0078C23.4688 21.0703 23.4219 21.125 23.4062 21.1719C23.3281 21.3125 23.3047 21.4766 23.3359 21.6641C23.3672 21.8359 23.3281 22.0156 23.2188 22.2031C23.1875 22.25 23.125 22.2891 23.0312 22.3203C22.9375 22.3359 22.8828 22.3594 22.8672 22.3906C22.8047 22.5312 22.7734 22.6953 22.7734 22.8828C22.7891 23.0703 22.7578 23.25 22.6797 23.4219C22.6641 23.4688 22.6094 23.5391 22.5156 23.6328C22.4219 23.7109 22.3672 23.7656 22.3516 23.7969C22.2891 23.9844 22.2578 24.1406 22.2578 24.2656C22.2734 24.375 22.2422 24.5078 22.1641 24.6641C22.1328 24.6953 22.0938 24.7109 22.0469 24.7109C22.0156 24.6953 22 24.7344 22 24.8281V25.0156C21.6406 25.8125 21.2109 26.5859 20.7109 27.3359C20.2109 28.0703 19.7656 28.8125 19.375 29.5625C19.3438 29.625 19.3203 29.7109 19.3047 29.8203C19.2891 29.9297 19.2578 30.0156 19.2109 30.0781C19.1797 30.1094 19.1094 30.1406 19 30.1719C18.9062 30.2031 18.8516 30.2344 18.8359 30.2656C18.7734 30.4062 18.75 30.5625 18.7656 30.7344C18.7812 30.8906 18.75 31.0234 18.6719 31.1328C18.6094 31.2422 18.4922 31.3828 18.3203 31.5547C18.1484 31.7266 17.9609 31.9141 17.7578 32.1172C17.5703 32.3203 17.3906 32.5391 17.2188 32.7734C17.0625 32.9922 16.9609 33.2031 16.9141 33.4062C16.8672 33.5938 16.7734 33.8047 16.6328 34.0391C16.4922 34.2734 16.3281 34.5234 16.1406 34.7891C15.9531 35.0547 15.7578 35.3281 15.5547 35.6094C15.3516 35.875 15.1641 36.1328 14.9922 36.3828C14.9453 36.4609 14.8516 36.5859 14.7109 36.7578C14.5703 36.9297 14.4922 37.1016 14.4766 37.2734V37.4375C14.2734 37.7031 14.0469 37.9141 13.7969 38.0703C13.5469 38.2422 13.3047 38.3281 13.0703 38.3281C12.8984 38.3281 12.7266 38.2734 12.5547 38.1641C12.3984 38.0547 12.2734 37.8672 12.1797 37.6016C12.1172 37.4453 12.0781 37.2891 12.0625 37.1328C12.0625 36.9609 12.0547 36.7656 12.0391 36.5469C12.0391 36.3125 12.0078 36.0469 11.9453 35.75C11.8984 35.4375 11.8047 35.0703 11.6641 34.6484C11.6328 34.5234 11.5625 34.4375 11.4531 34.3906C11.3594 34.3438 11.3125 34.2578 11.3125 34.1328C11.3125 34.0859 11.3125 34.0391 11.3125 33.9922C11.3281 33.9297 11.3359 33.875 11.3359 33.8281C11.3359 33.75 11.3125 33.6641 11.2656 33.5703C11.2188 33.4609 11.1797 33.3516 11.1484 33.2422C11.0703 32.9141 10.9766 32.5391 10.8672 32.1172C10.7578 31.6797 10.6484 31.2344 10.5391 30.7812C10.4297 30.3281 10.3203 29.8906 10.2109 29.4688C10.1172 29.0312 10.0234 28.6562 9.92969 28.3438C9.91406 28.3125 9.90625 28.2734 9.90625 28.2266C9.90625 28.1953 9.90625 28.1562 9.90625 28.1094C9.92188 28.0625 9.92969 28.0234 9.92969 27.9922C9.89844 27.8828 9.86719 27.75 9.83594 27.5938C9.80469 27.4375 9.75 27.2109 9.67188 26.9141C9.59375 26.6172 9.47656 26.2344 9.32031 25.7656C9.17969 25.2969 8.97656 24.6953 8.71094 23.9609C8.53906 23.4453 8.42188 22.9453 8.35938 22.4609C8.29688 21.9766 8.17188 21.4219 7.98438 20.7969C7.95312 20.7188 7.9375 20.5547 7.9375 20.3047C7.95312 20.0391 7.85938 19.6797 7.65625 19.2266C7.57812 19.0547 7.53906 18.8906 7.53906 18.7344C7.55469 18.5625 7.53125 18.3203 7.46875 18.0078C7.42188 17.7734 7.35156 17.4062 7.25781 16.9062C7.17969 16.4062 7.08594 15.8984 6.97656 15.3828C6.86719 14.8516 6.75781 14.3828 6.64844 13.9766C6.55469 13.5703 6.47656 13.3438 6.41406 13.2969C6.38281 13.2656 6.26562 13.25 6.0625 13.25C5.89062 13.25 5.75 13.2734 5.64062 13.3203C5.54688 13.3516 5.46094 13.3984 5.38281 13.4609C5.32031 13.5078 5.25781 13.5547 5.19531 13.6016C5.14844 13.6328 5.09375 13.6484 5.03125 13.6484H4.79688C4.53125 13.6484 4.29688 13.6094 4.09375 13.5312C3.89062 13.4531 3.78906 13.2734 3.78906 12.9922C3.78906 12.7734 3.86719 12.625 4.02344 12.5469C4.17969 12.4688 4.375 12.4219 4.60938 12.4062C4.85938 12.3906 5.14062 12.3828 5.45312 12.3828C5.76562 12.3672 6.08594 12.3203 6.41406 12.2422C6.63281 12.1953 6.82031 12.1172 6.97656 12.0078C7.13281 11.8984 7.29688 11.7969 7.46875 11.7031C7.54688 11.6719 7.65625 11.6562 7.79688 11.6562C7.9375 11.6406 8.0625 11.6016 8.17188 11.5391C8.21875 11.5078 8.25 11.4766 8.26562 11.4453C8.28125 11.3984 8.29688 11.3594 8.3125 11.3281C8.34375 11.2812 8.38281 11.2422 8.42969 11.2109C8.49219 11.1797 8.58594 11.1641 8.71094 11.1641C8.91406 11.1641 9.10938 11.1953 9.29688 11.2578C9.5 11.3203 9.71094 11.3516 9.92969 11.3516C10.3047 11.3516 10.7031 11.2891 11.125 11.1641C11.5469 11.0391 11.9375 10.9766 12.2969 10.9766C12.4844 10.9766 12.6562 11.0078 12.8125 11.0703C12.9688 11.1172 13.1094 11.2109 13.2344 11.3516C13.2031 11.5703 13.0469 11.7188 12.7656 11.7969C12.4844 11.8594 12.1797 11.9062 11.8516 11.9375C11.5391 11.9688 11.25 12.0156 10.9844 12.0781C10.7188 12.125 10.5859 12.2344 10.5859 12.4062C10.5859 12.9375 10.6328 13.5156 10.7266 14.1406C10.8203 14.75 10.9219 15.3281 11.0312 15.875C11.1406 16.4062 11.2422 16.875 11.3359 17.2812C11.4297 17.6719 11.4844 17.9141 11.5 18.0078C11.5781 18.6641 11.6406 19.3281 11.6875 20C11.7344 20.6719 11.8438 21.3516 12.0156 22.0391C12.0469 22.2109 12.0625 22.4062 12.0625 22.625C12.0625 22.8438 12.1016 23.1094 12.1797 23.4219C12.1953 23.5312 12.2422 23.7109 12.3203 23.9609C12.4141 24.2109 12.5 24.4766 12.5781 24.7578C12.6562 25.0234 12.7266 25.2812 12.7891 25.5312C12.8672 25.7656 12.9062 25.9375 12.9062 26.0469C12.9062 26.125 12.8984 26.2109 12.8828 26.3047C12.8828 26.3984 12.8828 26.4844 12.8828 26.5625C12.8828 26.75 12.9453 26.9844 13.0703 27.2656C13.1953 27.5312 13.3125 27.8281 13.4219 28.1562C13.4531 28.25 13.4844 28.3281 13.5156 28.3906C13.5625 28.4375 13.5859 28.4766 13.5859 28.5078C13.6797 28.7891 13.7344 29.0938 13.75 29.4219C13.7812 29.75 13.8516 30.0938 13.9609 30.4531C14.0547 30.6406 14.1484 30.9141 14.2422 31.2734C14.3516 31.6328 14.4609 31.9922 14.5703 32.3516C14.6797 32.7109 14.7891 33.0234 14.8984 33.2891C15.0234 33.5547 15.1562 33.6875 15.2969 33.6875C15.375 33.6875 15.4453 33.6328 15.5078 33.5234C15.5859 33.4141 15.6641 33.2891 15.7422 33.1484C15.8203 32.9922 15.8984 32.8281 15.9766 32.6562C16.0547 32.4844 16.1328 32.3281 16.2109 32.1875C16.4297 31.8281 16.6406 31.5156 16.8438 31.25C17.0469 30.9688 17.1875 30.7578 17.2656 30.6172C17.3281 30.5234 17.3594 30.4375 17.3594 30.3594C17.3594 30.2656 17.3828 30.1719 17.4297 30.0781L18.6719 28.1562C18.7031 28.0938 18.7266 28.0156 18.7422 27.9219C18.7578 27.8125 18.7891 27.7188 18.8359 27.6406C18.8984 27.5625 18.9531 27.5234 19 27.5234C19.0625 27.5078 19.1094 27.4766 19.1406 27.4297C19.1875 27.3828 19.2188 27.2969 19.2344 27.1719C19.2656 27.0469 19.2812 26.8203 19.2812 26.4922C19.2812 26.3203 19.3047 26.1875 19.3516 26.0938C19.3984 25.9844 19.4453 25.9062 19.4922 25.8594C19.5547 25.8125 19.6094 25.7734 19.6562 25.7422C19.7031 25.7109 19.7266 25.6797 19.7266 25.6484C19.7266 25.6172 19.7188 25.5859 19.7031 25.5547C19.7031 25.5078 19.7031 25.4688 19.7031 25.4375C19.7031 25.4062 19.7109 25.3828 19.7266 25.3672C19.8203 25.1797 19.9297 24.9453 20.0547 24.6641C20.1797 24.3828 20.2969 24.0938 20.4062 23.7969C20.5312 23.5 20.6562 23.2109 20.7812 22.9297C20.9062 22.6484 21.0156 22.4062 21.1094 22.2031C21.2656 22 21.375 21.8672 21.4375 21.8047C21.5 21.7422 21.5312 21.6094 21.5312 21.4062V21.1484C21.5312 20.9766 21.5547 20.875 21.6016 20.8438C21.6641 20.8125 21.7422 20.6875 21.8359 20.4688C21.9141 20.125 21.9531 19.7891 21.9531 19.4609C21.9531 19.1172 22.0234 18.8125 22.1641 18.5469C22.3203 18.25 22.4609 17.8984 22.5859 17.4922C22.7109 17.0703 22.8203 16.625 22.9141 16.1562C23.0234 15.6719 23.1172 15.1875 23.1953 14.7031C23.2734 14.2031 23.3438 13.7344 23.4062 13.2969C23.3438 13.3281 23.2969 13.3438 23.2656 13.3438C23.1875 13.3438 23.1016 13.3281 23.0078 13.2969C22.9297 13.2656 22.8281 13.25 22.7031 13.25C22.5781 13.25 22.4766 13.2734 22.3984 13.3203C22.3203 13.3516 22.25 13.3984 22.1875 13.4609C22.125 13.5078 22.0625 13.5547 22 13.6016C21.9531 13.6328 21.8984 13.6484 21.8359 13.6484C21.7422 13.6484 21.6328 13.6484 21.5078 13.6484C21.3984 13.6328 21.2812 13.6094 21.1562 13.5781C21.0469 13.5312 20.9531 13.4688 20.875 13.3906C20.7969 13.3125 20.7578 13.2031 20.7578 13.0625C20.7578 12.6719 20.9297 12.4375 21.2734 12.3594C21.6172 12.2656 22.0859 12.2188 22.6797 12.2188C23.1484 12.2188 23.5859 12.1094 23.9922 11.8906C24.4141 11.6719 24.8516 11.3828 25.3047 11.0234C25.3516 10.9922 25.4219 10.9297 25.5156 10.8359C25.625 10.7266 25.7188 10.6719 25.7969 10.6719H25.8438C26.0469 10.6719 26.1875 10.7109 26.2656 10.7891C26.3438 10.8516 26.3906 10.9297 26.4062 11.0234C26.4375 11.1016 26.4531 11.1797 26.4531 11.2578C26.4688 11.3203 26.5078 11.3516 26.5703 11.3516C26.6797 11.3516 26.8359 11.3281 27.0391 11.2812C27.2422 11.2344 27.4531 11.1875 27.6719 11.1406C27.9062 11.0781 28.1406 11.0234 28.375 10.9766C28.6094 10.9297 28.8281 10.9062 29.0312 10.9062C29.375 10.9062 29.6016 11 29.7109 11.1875Z" fill="black"/>
</g>
<g clip-path="url(#clip2_1_4)">
<rect width="25" height="56" transform="translate(26 2)" fill="#F5F5F5"/>
<path d="M47.5312 16.7031C47.4844 16.8906 47.4062 17.0547 47.2969 17.1953C47.2031 17.3359 47.0938 17.4766 46.9688 17.6172C46.8594 17.7422 46.7422 17.875 46.6172 18.0156C46.5078 18.1562 46.4062 18.3125 46.3125 18.4844C46.2969 18.5 46.2891 18.5312 46.2891 18.5781C46.2891 18.625 46.2969 18.6797 46.3125 18.7422C46.3281 18.7891 46.3359 18.8438 46.3359 18.9062C46.3359 18.9062 46.2734 18.9688 46.1484 19.0938C46.0391 19.2031 45.9141 19.3438 45.7734 19.5156C45.6484 19.6719 45.5234 19.8438 45.3984 20.0312C45.2891 20.2031 45.2344 20.3438 45.2344 20.4531C45.2344 20.4844 45.2344 20.5234 45.2344 20.5703C45.25 20.6172 45.2578 20.6562 45.2578 20.6875V20.7344C45.0859 20.875 44.9219 21.0703 44.7656 21.3203C44.6094 21.5547 44.4609 21.8125 44.3203 22.0938C44.1797 22.375 44.0391 22.6641 43.8984 22.9609C43.7734 23.2422 43.6484 23.5 43.5234 23.7344C43.4141 23.9531 43.3203 24.1484 43.2422 24.3203C43.1641 24.4922 43.0781 24.7578 42.9844 25.1172C42.9219 25.3516 42.8594 25.5234 42.7969 25.6328C42.75 25.7266 42.6875 25.8047 42.6094 25.8672C42.5469 25.9297 42.4688 25.9922 42.375 26.0547C42.2969 26.1016 42.2109 26.2031 42.1172 26.3594C42.1016 26.375 42.0938 26.3906 42.0938 26.4062C42.0938 26.4375 42.0938 26.4766 42.0938 26.5234C42.1094 26.5703 42.1172 26.6094 42.1172 26.6406C42.1172 26.6719 42.0625 26.7344 41.9531 26.8281C41.8594 26.9219 41.7891 26.9922 41.7422 27.0391C41.6641 27.1641 41.6094 27.3125 41.5781 27.4844C41.5469 27.6562 41.4922 27.8047 41.4141 27.9297C41.3359 28.0391 41.2422 28.125 41.1328 28.1875C41.0234 28.25 40.9453 28.3359 40.8984 28.4453C40.6172 28.8828 40.3516 29.3438 40.1016 29.8281C39.8516 30.2969 39.5859 30.7656 39.3047 31.2344C38.8984 31.9375 38.5 32.6016 38.1094 33.2266C37.7344 33.8516 37.375 34.5312 37.0312 35.2656C37.0312 35.2812 36.9844 35.3906 36.8906 35.5938C36.7969 35.7969 36.6641 36.0391 36.4922 36.3203C36.4297 36.4453 36.3438 36.5469 36.2344 36.625C36.125 36.6875 36.0391 36.7656 35.9766 36.8594C35.8984 37 35.8438 37.1406 35.8125 37.2812C35.7969 37.4219 35.7422 37.5625 35.6484 37.7031C35.5859 37.7969 35.4922 37.8906 35.3672 37.9844C35.2578 38.0625 35.1719 38.1484 35.1094 38.2422C34.9531 38.4922 34.8125 38.7734 34.6875 39.0859C34.5781 39.3984 34.4844 39.6406 34.4062 39.8125C34.1406 40.3594 33.8438 40.9375 33.5156 41.5469C33.1875 42.1562 32.8438 42.8047 32.4844 43.4922C32.3125 43.8047 32.0938 44.1641 31.8281 44.5703C31.5781 44.9766 31.2734 45.5547 30.9141 46.3047C30.7891 46.5391 30.6875 46.7969 30.6094 47.0781C30.5312 47.3594 30.4453 47.6172 30.3516 47.8516C30.2578 48.1016 30.1406 48.3047 30 48.4609C29.875 48.6328 29.6875 48.7188 29.4375 48.7188C29.1719 48.7188 28.9531 48.6562 28.7812 48.5312C28.625 48.4062 28.4922 48.2656 28.3828 48.1094C28.2734 47.9531 28.1953 47.8047 28.1484 47.6641C28.1172 47.5234 28.1016 47.4375 28.1016 47.4062C28.1016 47.25 28.1328 47.125 28.1953 47.0312C28.2578 46.9531 28.3281 46.8828 28.4062 46.8203C28.5 46.7578 28.5938 46.6875 28.6875 46.6094C28.7969 46.5469 28.8984 46.4453 28.9922 46.3047C29.0859 46.0547 29.2109 45.8672 29.3672 45.7422C29.5234 45.6016 29.6875 45.4375 29.8594 45.25C29.9062 45.1719 29.9297 45.0859 29.9297 44.9922C29.9453 44.8984 29.9766 44.8125 30.0234 44.7344C30.1016 44.625 30.2109 44.5156 30.3516 44.4062C30.4922 44.2969 30.5625 44.0859 30.5625 43.7734C30.5625 43.7266 30.5547 43.6797 30.5391 43.6328C30.5391 43.5859 30.5391 43.5391 30.5391 43.4922C30.5391 43.3672 30.5469 43.25 30.5625 43.1406C30.5781 43.0625 30.6016 42.9844 30.6328 42.9062C30.6641 42.8281 30.7109 42.7891 30.7734 42.7891C30.8047 42.7891 30.8438 42.7969 30.8906 42.8125C30.9375 42.8125 30.9766 42.8125 31.0078 42.8125C31.0703 42.8125 31.1016 42.7812 31.1016 42.7188C31.1016 42.6875 31.0938 42.6484 31.0781 42.6016C31.0625 42.5547 31.0547 42.5156 31.0547 42.4844C31.0547 42.4531 31.0703 42.4375 31.1016 42.4375C31.1172 42.4375 31.1328 42.4453 31.1484 42.4609C31.1797 42.4609 31.2031 42.4609 31.2188 42.4609C31.2656 42.4609 31.3047 42.3828 31.3359 42.2266C31.3672 42.0703 31.3984 41.9688 31.4297 41.9219C31.4609 41.875 31.5156 41.8438 31.5938 41.8281C31.6875 41.8125 31.75 41.7812 31.7812 41.7344C31.8281 41.6719 31.8516 41.5938 31.8516 41.5C31.8672 41.3906 31.9062 41.2969 31.9688 41.2188C32 41.1875 32.0547 41.1641 32.1328 41.1484C32.2266 41.1172 32.2812 41.0859 32.2969 41.0547C32.375 40.9297 32.4297 40.7812 32.4609 40.6094C32.5078 40.4375 32.5703 40.2891 32.6484 40.1641C32.9297 39.6797 33.2188 39.1875 33.5156 38.6875C33.8281 38.1875 34.125 37.6875 34.4062 37.1875C34.9531 36.2188 35.4766 35.2031 35.9766 34.1406C36.4766 33.0781 37 31.9922 37.5469 30.8828C37.6719 30.6172 37.8125 30.3594 37.9688 30.1094C38.1406 29.8594 38.2969 29.5938 38.4375 29.3125C38.5625 29.0469 38.6719 28.7656 38.7656 28.4688C38.875 28.1562 38.9922 27.8594 39.1172 27.5781C39.4766 26.7656 39.875 25.9844 40.3125 25.2344C40.7656 24.4844 41.1875 23.6875 41.5781 22.8438C41.7031 22.5781 41.8203 22.3281 41.9297 22.0938C42.0391 21.8438 42.1406 21.5938 42.2344 21.3438C42.3438 21.0781 42.4609 20.7969 42.5859 20.5C42.7109 20.2031 42.8438 19.875 42.9844 19.5156C43.1094 19.2188 43.1953 18.8984 43.2422 18.5547C43.3047 18.1953 43.3984 17.9297 43.5234 17.7578C43.6172 17.6016 43.8125 17.4453 44.1094 17.2891C44.4219 17.1172 44.75 16.9219 45.0938 16.7031C45.2188 16.625 45.3281 16.5391 45.4219 16.4453C45.5156 16.3516 45.6328 16.2656 45.7734 16.1875C45.9297 16.1094 46.0859 16.0547 46.2422 16.0234C46.3984 15.9766 46.5391 15.9219 46.6641 15.8594C46.7578 15.7813 46.8359 15.6719 46.8984 15.5312C46.9766 15.375 47.1484 15.2969 47.4141 15.2969C47.5547 15.2969 47.6484 15.3672 47.6953 15.5078C47.7578 15.6484 47.7891 15.7578 47.7891 15.8359C47.7891 16.0078 47.75 16.1719 47.6719 16.3281C47.6094 16.4844 47.5625 16.6094 47.5312 16.7031Z" fill="black"/>
</g>
<g clip-path="url(#clip3_1_4)">
<rect width="32" height="56" transform="translate(51 7)" fill="#F5F5F5"/>
<path d="M79.9844 51.9844C79.9844 52.125 79.9219 52.2734 79.7969 52.4297C79.6875 52.5703 79.5547 52.7188 79.3984 52.875C79.2578 53.0156 79.1094 53.1641 78.9531 53.3203C78.7969 53.4609 78.6719 53.5938 78.5781 53.7188C78.5 53.8281 78.4375 53.9688 78.3906 54.1406C78.3594 54.3125 78.3047 54.4688 78.2266 54.6094C78.0391 54.9688 77.7891 55.2812 77.4766 55.5469C77.1641 55.8125 76.8281 56.1406 76.4688 56.5312C76.3281 56.6875 76.1953 56.8438 76.0703 57C75.9609 57.1562 75.8438 57.2969 75.7188 57.4219C75.6094 57.5625 75.4766 57.6719 75.3203 57.75C75.1797 57.8281 75.0078 57.8672 74.8047 57.8672C74.5859 57.8672 74.4141 57.8359 74.2891 57.7734C74.1797 57.7109 74.0703 57.6328 73.9609 57.5391C73.8672 57.4609 73.7578 57.375 73.6328 57.2812C73.5234 57.1875 73.3672 57.1094 73.1641 57.0469C72.9297 56.9844 72.6172 56.75 72.2266 56.3438C71.8516 55.9375 71.4609 55.4141 71.0547 54.7734C71.0234 54.7266 70.9844 54.7109 70.9375 54.7266C70.9062 54.7422 70.8906 54.7031 70.8906 54.6094C70.8906 54.5156 70.8203 54.4141 70.6797 54.3047C70.5547 54.1797 70.4141 54.0625 70.2578 53.9531C70.1172 53.8281 69.9766 53.7188 69.8359 53.625C69.7109 53.5312 69.6484 53.4531 69.6484 53.3906C69.6484 53.2969 69.6016 53.2109 69.5078 53.1328C69.4297 53.0391 69.3281 52.9531 69.2031 52.875C69.0938 52.7812 68.9766 52.6953 68.8516 52.6172C68.7422 52.5234 68.6562 52.4297 68.5938 52.3359C68.4844 52.1172 68.3516 51.9141 68.1953 51.7266C68.0391 51.5391 67.875 51.3594 67.7031 51.1875C67.5312 51 67.3594 50.8203 67.1875 50.6484C67.0156 50.4609 66.8516 50.2578 66.6953 50.0391C66.6016 49.9141 66.5234 49.7812 66.4609 49.6406C66.3984 49.5 66.3516 49.4062 66.3203 49.3594C66.1172 49.1094 65.8438 48.8516 65.5 48.5859C65.1562 48.3047 64.8203 48.0234 64.4922 47.7422C64.1641 47.4453 63.8828 47.1562 63.6484 46.875C63.4141 46.5781 63.2969 46.2969 63.2969 46.0312C63.2969 45.9531 63.3281 45.8438 63.3906 45.7031C63.4688 45.5625 63.6094 45.4922 63.8125 45.4922C63.8594 45.4922 63.9062 45.5 63.9531 45.5156C64 45.5156 64.0391 45.5156 64.0703 45.5156C64.1016 45.5 64.1797 45.4609 64.3047 45.3984C64.4453 45.3203 64.5859 45.2344 64.7266 45.1406C64.8984 45.0469 65.0859 44.9297 65.2891 44.7891C65.5859 44.6172 65.9766 44.375 66.4609 44.0625C66.9609 43.7344 67.4766 43.3594 68.0078 42.9375C68.5391 42.5156 69.0469 42.0625 69.5312 41.5781C70.0156 41.0938 70.4062 40.5938 70.7031 40.0781C70.8125 39.9062 70.9141 39.7734 71.0078 39.6797C71.1172 39.5859 71.1719 39.4141 71.1719 39.1641C71.1719 39.0078 71.1172 38.8203 71.0078 38.6016C70.9141 38.3828 70.7812 38.1641 70.6094 37.9453C70.4531 37.7266 70.2734 37.5156 70.0703 37.3125C69.8828 37.0938 69.6875 36.9062 69.4844 36.75C69.3594 36.6406 69.2031 36.5547 69.0156 36.4922C68.8281 36.4141 68.6875 36.3281 68.5938 36.2344C68.4531 36.0469 68.3672 35.8281 68.3359 35.5781C68.3203 35.3125 68.2344 35.125 68.0781 35.0156C67.9844 34.9375 67.7969 34.9062 67.5156 34.9219C67.2344 34.9219 67.0156 34.8906 66.8594 34.8281C66.8125 34.7969 66.7578 34.7422 66.6953 34.6641C66.6484 34.5703 66.5859 34.5078 66.5078 34.4766C66.4141 34.4141 66.3203 34.375 66.2266 34.3594C66.1484 34.3438 66.0625 34.3203 65.9688 34.2891C65.9375 34.2891 65.8906 34.25 65.8281 34.1719C65.7656 34.0938 65.6641 34.0156 65.5234 33.9375C65.3828 33.8594 65.2031 33.7891 64.9844 33.7266C64.7656 33.6484 64.4922 33.6094 64.1641 33.6094C63.9453 33.6094 63.7656 33.7344 63.625 33.9844C63.5 34.2188 63.3984 34.5312 63.3203 34.9219C63.2422 35.2969 63.1875 35.7266 63.1562 36.2109C63.125 36.6953 63.1016 37.1875 63.0859 37.6875C63.0703 38.1719 63.0625 38.6484 63.0625 39.1172C63.0625 39.5703 63.0469 39.9531 63.0156 40.2656C62.9219 41.5625 62.7578 42.8828 62.5234 44.2266C62.3047 45.5547 62.1172 46.9688 61.9609 48.4688V48.5391C61.9609 48.6016 61.9609 48.6641 61.9609 48.7266C61.9766 48.7734 61.9844 48.8203 61.9844 48.8672C61.9844 48.9141 61.9609 48.9844 61.9141 49.0781C61.8828 49.1562 61.8359 49.1953 61.7734 49.1953C61.7734 49.3672 61.7812 49.4766 61.7969 49.5234C61.8281 49.5547 61.8438 49.625 61.8438 49.7344C61.8438 49.7812 61.8359 49.8438 61.8203 49.9219C61.8203 50 61.8047 50.1016 61.7734 50.2266C61.6953 50.5703 61.6328 50.9766 61.5859 51.4453C61.5391 51.8984 61.4922 52.3828 61.4453 52.8984C61.4141 53.4141 61.3828 53.9375 61.3516 54.4688C61.3359 55 61.3047 55.5156 61.2578 56.0156C61.2891 56.0156 61.3203 56.0234 61.3516 56.0391C61.3828 56.0391 61.4141 56.0391 61.4453 56.0391C61.7422 56.0391 62.0312 56 62.3125 55.9219C62.6094 55.8281 62.8906 55.7812 63.1562 55.7812C63.4375 55.7812 63.6797 55.8594 63.8828 56.0156C63.8359 56.2344 63.7344 56.3906 63.5781 56.4844C63.4219 56.5781 63.2344 56.6484 63.0156 56.6953C62.7969 56.7422 62.5625 56.7734 62.3125 56.7891C62.0625 56.8047 61.8281 56.8281 61.6094 56.8594C61.5781 56.875 61.5312 56.9141 61.4688 56.9766C61.4219 57.0234 61.3516 57.0469 61.2578 57.0469C61.0234 57.0625 60.7656 57.1172 60.4844 57.2109C60.2188 57.3047 59.9453 57.4062 59.6641 57.5156C59.3828 57.625 59.1016 57.7266 58.8203 57.8203C58.5547 57.9141 58.2969 57.9609 58.0469 57.9609C57.875 57.9609 57.7344 57.9375 57.625 57.8906C57.5156 57.8594 57.3984 57.8438 57.2734 57.8438C57.1016 57.8438 56.9844 57.8828 56.9219 57.9609C56.8594 58.0391 56.7891 58.0859 56.7109 58.1016C56.3828 58.1797 56 58.2891 55.5625 58.4297C55.125 58.5859 54.7422 58.6641 54.4141 58.6641C54.2422 58.6641 54.0859 58.6328 53.9453 58.5703C53.8203 58.5391 53.7188 58.4766 53.6406 58.3828C53.5625 58.3047 53.5391 58.2031 53.5703 58.0781C53.5391 57.9844 53.5234 57.9141 53.5234 57.8672C53.5234 57.6641 53.6094 57.5078 53.7812 57.3984C53.9688 57.2891 54.1953 57.2031 54.4609 57.1406C54.7422 57.0781 55.0469 57.0312 55.375 57C55.7188 56.9531 56.0469 56.9062 56.3594 56.8594C56.3906 56.8594 56.4297 56.8672 56.4766 56.8828C56.5234 56.8828 56.5859 56.8828 56.6641 56.8828C57.0703 56.8828 57.3438 56.6641 57.4844 56.2266C57.6406 55.7891 57.7891 55.0703 57.9297 54.0703C57.9297 54.0547 57.9375 54.0234 57.9531 53.9766C57.9688 53.9141 58.0234 53.8281 58.1172 53.7188C58.1172 53.5469 58.0859 53.4062 58.0234 53.2969C57.9609 53.1719 57.9297 53.0469 57.9297 52.9219C57.9297 52.875 57.9531 52.8281 58 52.7812C58.0469 52.7188 58.0859 52.625 58.1172 52.5C58.1484 52.1562 58.1953 51.7734 58.2578 51.3516C58.3359 50.9141 58.4141 50.4531 58.4922 49.9688C58.5703 49.4844 58.6406 48.9844 58.7031 48.4688C58.7656 47.9375 58.8047 47.4141 58.8203 46.8984C58.8203 46.5547 58.8281 46.2344 58.8438 45.9375C58.8594 45.6406 58.9062 45.3203 58.9844 44.9766C59 44.9141 59.0078 44.8672 59.0078 44.8359C59.0234 44.7891 59.0312 44.7422 59.0312 44.6953C59.0312 44.6016 59.0234 44.4922 59.0078 44.3672C58.9922 44.2422 58.9844 44.0312 58.9844 43.7344C58.9844 43.2656 59.0312 42.7344 59.125 42.1406C59.2188 41.5469 59.2891 40.9219 59.3359 40.2656C59.3672 39.7969 59.3984 39.3672 59.4297 38.9766C59.4609 38.5859 59.4922 38.2031 59.5234 37.8281C59.5547 37.4375 59.5938 37.0469 59.6406 36.6562C59.7031 36.25 59.7734 35.8125 59.8516 35.3438C59.8828 35.2188 59.9297 35 59.9922 34.6875C60.0547 34.375 60.0859 34.1094 60.0859 33.8906C60.0859 33.6719 60.0156 33.5391 59.875 33.4922C59.75 33.4297 59.6016 33.3984 59.4297 33.3984C58.8203 33.3984 58.3125 33.5234 57.9062 33.7734C57.5 34.0234 57.1484 34.2969 56.8516 34.5938C56.5547 34.875 56.2891 35.1406 56.0547 35.3906C55.8203 35.6406 55.5625 35.7656 55.2812 35.7656C55.2031 35.7656 55.125 35.75 55.0469 35.7188C54.9844 35.6875 54.9531 35.6016 54.9531 35.4609C54.9531 35.1484 55.0469 34.8828 55.2344 34.6641C55.4219 34.4297 55.6172 34.1953 55.8203 33.9609C55.8984 33.8828 55.9844 33.8516 56.0781 33.8672C56.1875 33.8672 56.2812 33.8359 56.3594 33.7734C56.4844 33.6484 56.6016 33.4766 56.7109 33.2578C56.8203 33.0234 56.9375 32.8438 57.0625 32.7188C57.1406 32.6406 57.2266 32.6094 57.3203 32.625C57.4141 32.6406 57.5078 32.6172 57.6016 32.5547L57.9297 32.1797C58.0078 32.0859 58.0781 31.9922 58.1406 31.8984C58.2188 31.8047 58.2656 31.7266 58.2812 31.6641C58.2812 31.6484 58.3359 31.5703 58.4453 31.4297C58.5547 31.2891 58.6797 31.1406 58.8203 30.9844C58.9609 30.8125 59.0938 30.6641 59.2188 30.5391C59.3594 30.3984 59.4531 30.3125 59.5 30.2812C59.6406 30.2031 59.8047 30.1562 59.9922 30.1406C60.1953 30.1094 60.3906 30.0938 60.5781 30.0938C60.7812 30.0781 60.9688 30.0625 61.1406 30.0469C61.3281 30.0312 61.4844 29.9922 61.6094 29.9297C61.7344 29.8516 61.8047 29.7734 61.8203 29.6953C61.8516 29.6016 61.9531 29.4453 62.125 29.2266C62.2031 29.1172 62.3281 29.0234 62.5 28.9453C62.6719 28.8672 62.7812 28.7891 62.8281 28.7109C62.8281 28.6953 62.8438 28.5781 62.875 28.3594C62.9062 28.125 62.9609 27.875 63.0391 27.6094C63.1328 27.3438 63.25 27.1016 63.3906 26.8828C63.5469 26.6641 63.75 26.5547 64 26.5547C64.125 26.5547 64.2266 26.625 64.3047 26.7656C64.3828 26.8906 64.4766 26.9531 64.5859 26.9531V27.0469C64.5859 27.2188 64.5469 27.4375 64.4688 27.7031C64.3906 27.9531 64.3047 28.2109 64.2109 28.4766C64.1172 28.7266 64.0312 28.9609 63.9531 29.1797C63.875 29.3828 63.8359 29.5156 63.8359 29.5781C63.8359 29.8125 63.9297 30 64.1172 30.1406C64.3047 30.2656 64.5547 30.3828 64.8672 30.4922C65.1953 30.6016 65.5703 30.7031 65.9922 30.7969C66.4297 30.8906 66.8906 31.0078 67.375 31.1484C67.7031 31.2422 67.9766 31.3438 68.1953 31.4531C68.4297 31.5625 68.6484 31.6797 68.8516 31.8047C69.0547 31.9141 69.2578 32.0312 69.4609 32.1562C69.6641 32.2812 69.8984 32.4141 70.1641 32.5547C70.2422 32.5859 70.3594 32.6094 70.5156 32.625C70.6875 32.625 70.8125 32.6562 70.8906 32.7188C71.0625 32.8438 71.2031 33.0078 71.3125 33.2109C71.4375 33.4141 71.5859 33.6016 71.7578 33.7734C71.9453 33.9609 72.1719 34.1797 72.4375 34.4297C72.7188 34.6797 72.9922 34.9297 73.2578 35.1797C73.5234 35.4141 73.75 35.6406 73.9375 35.8594C74.125 36.0781 74.2188 36.2422 74.2188 36.3516C74.2188 36.4141 74.2109 36.4922 74.1953 36.5859C74.1797 36.6641 74.1719 36.7344 74.1719 36.7969C74.1719 36.875 74.1953 36.9375 74.2422 36.9844C74.2891 37.0312 74.3125 37.0938 74.3125 37.1719C74.3125 37.2969 74.2656 37.4375 74.1719 37.5938C74.0938 37.7344 73.9844 37.9219 73.8438 38.1562C73.7812 38.2812 73.7578 38.3984 73.7734 38.5078C73.7891 38.6172 73.7578 38.7344 73.6797 38.8594C73.6328 38.9375 73.5547 38.9766 73.4453 38.9766C73.3516 38.9609 73.3047 39 73.3047 39.0938C73.3047 39.125 73.3047 39.1641 73.3047 39.2109C73.3203 39.2578 73.3281 39.2969 73.3281 39.3281C73.3281 39.4531 73.2422 39.5781 73.0703 39.7031C72.8984 39.8281 72.6953 39.9609 72.4609 40.1016C72.2422 40.2266 72.0234 40.3594 71.8047 40.5C71.6016 40.6406 71.4688 40.7891 71.4062 40.9453V40.9688C71.4062 41 71.4062 41.0469 71.4062 41.1094C71.4219 41.1562 71.4297 41.1953 71.4297 41.2266C71.4297 41.2734 71.3984 41.3203 71.3359 41.3672C71.2734 41.3984 71.2031 41.4297 71.125 41.4609C71.0469 41.4922 70.9688 41.5234 70.8906 41.5547C70.8125 41.5859 70.75 41.6172 70.7031 41.6484C70.625 41.6953 70.5312 41.7891 70.4219 41.9297C70.3281 42.0547 70.2188 42.1953 70.0938 42.3516C69.9844 42.4922 69.875 42.6328 69.7656 42.7734C69.6562 42.8984 69.5625 42.9922 69.4844 43.0547C69.3906 43.1328 69.2344 43.2188 69.0156 43.3125C68.7969 43.4062 68.5781 43.5078 68.3594 43.6172C68.1406 43.7266 67.9453 43.8438 67.7734 43.9688C67.6172 44.0781 67.5391 44.1875 67.5391 44.2969C67.5391 44.375 67.6094 44.5312 67.75 44.7656C67.9062 44.9844 68.0703 45.2109 68.2422 45.4453C68.4453 45.7266 68.6797 46.0312 68.9453 46.3594C68.9453 46.4844 69.0781 46.7109 69.3438 47.0391C69.6094 47.3672 69.9141 47.7344 70.2578 48.1406C70.6172 48.5312 70.9688 48.9219 71.3125 49.3125C71.6719 49.6875 71.9375 49.9922 72.1094 50.2266C72.1875 50.3203 72.2734 50.4062 72.3672 50.4844C72.4609 50.5469 72.5469 50.6406 72.625 50.7656C72.7031 50.8438 72.7344 50.9297 72.7188 51.0234C72.7188 51.1172 72.7422 51.2031 72.7891 51.2812C72.8359 51.3125 72.8984 51.3438 72.9766 51.375C73.0703 51.3906 73.1328 51.4141 73.1641 51.4453C73.6016 52.0547 73.9531 52.5547 74.2188 52.9453C74.4844 53.3203 74.7031 53.625 74.875 53.8594C75.0625 54.0781 75.2266 54.2266 75.3672 54.3047C75.5234 54.3828 75.7031 54.4219 75.9062 54.4219C76.1562 54.4219 76.4297 54.3438 76.7266 54.1875C77.0391 54.0312 77.3203 53.8516 77.5703 53.6484C77.8359 53.4297 78.0547 53.2188 78.2266 53.0156C78.4141 52.8125 78.5078 52.6641 78.5078 52.5703V52.5C78.5078 52.4688 78.5156 52.4219 78.5312 52.3594C78.5625 52.2812 78.6406 52.1562 78.7656 51.9844C78.875 51.8125 78.9766 51.6484 79.0703 51.4922C79.1797 51.3359 79.3203 51.2578 79.4922 51.2578C79.5703 51.2578 79.6719 51.3125 79.7969 51.4219C79.9219 51.5312 79.9844 51.7188 79.9844 51.9844Z" fill="black"/>
</g>
</g>
<defs>
<clipPath id="clip0_1_4">
<rect width="83" height="66" fill="white"/>
</clipPath>
<clipPath id="clip1_1_4">
<rect width="26" height="51" fill="white" transform="translate(0 -6)"/>
</clipPath>
<clipPath id="clip2_1_4">
<rect width="25" height="56" fill="white" transform="translate(26 2)"/>
</clipPath>
<clipPath id="clip3_1_4">
<rect width="32" height="56" fill="white" transform="translate(51 7)"/>
</clipPath>
</defs>
</svg>
